<svg width="64" height="16" viewBox="0 0 64 16" fill="none" xmlns="http://www.w3.org/2000/svg">
<path d="M11.3926 13.2441L9.07812 4.66016L6.73438 13.2441C6.55208 13.8952 6.4056 14.3639 6.29492 14.6504C6.19076 14.9303 6.00521 15.1842 5.73828 15.4121C5.47135 15.6335 5.11654 15.7441 4.67383 15.7441C4.31576 15.7441 4.01953 15.6758 3.78516 15.5391C3.55729 15.4089 3.37174 15.2233 3.22852 14.9824C3.08529 14.735 2.9681 14.4453 2.87695 14.1133C2.78581 13.7747 2.70443 13.4622 2.63281 13.1758L0.25 3.53711C0.106771 2.97721 0.0351562 2.55078 0.0351562 2.25781C0.0351562 1.88672 0.165365 1.57422 0.425781 1.32031C0.686198 1.06641 1.00846 0.939453 1.39258 0.939453C1.91992 0.939453 2.27474 1.10872 2.45703 1.44727C2.63932 1.78581 2.79883 2.27734 2.93555 2.92188L4.81055 11.2812L6.91016 3.45898C7.06641 2.86003 7.20638 2.4043 7.33008 2.0918C7.45378 1.7793 7.6556 1.50911 7.93555 1.28125C8.21549 1.05339 8.59635 0.939453 9.07812 0.939453C9.56641 0.939453 9.94401 1.0599 10.2109 1.30078C10.4844 1.53516 10.6732 1.79232 10.7773 2.07227C10.8815 2.35221 11.0215 2.81445 11.1973 3.45898L13.3164 11.2812L15.1914 2.92188C15.2826 2.48568 15.3672 2.14388 15.4453 1.89648C15.5299 1.64909 15.6699 1.42773 15.8652 1.23242C16.0671 1.03711 16.3568 0.939453 16.7344 0.939453C17.112 0.939453 17.431 1.06641 17.6914 1.32031C17.9583 1.56771 18.0918 1.88021 18.0918 2.25781C18.0918 2.52474 18.0202 2.95117 17.877 3.53711L15.4941 13.1758C15.3314 13.8268 15.1947 14.3053 15.084 14.6113C14.9798 14.9108 14.7975 15.1745 14.5371 15.4023C14.2832 15.6302 13.9219 15.7441 13.4531 15.7441C13.0104 15.7441 12.6556 15.6335 12.3887 15.4121C12.1217 15.1908 11.9362 14.9434 11.832 14.6699C11.7279 14.39 11.5814 13.9147 11.3926 13.2441ZM30.9043 11.2031C30.9043 12.069 30.6797 12.847 30.2305 13.5371C29.7878 14.2272 29.1367 14.7676 28.2773 15.1582C27.418 15.5488 26.3991 15.7441 25.2207 15.7441C23.8079 15.7441 22.6426 15.4772 21.7246 14.9434C21.0736 14.5592 20.543 14.0482 20.1328 13.4102C19.7292 12.7656 19.5273 12.1406 19.5273 11.5352C19.5273 11.1836 19.6478 10.8841 19.8887 10.6367C20.1361 10.3828 20.4486 10.2559 20.8262 10.2559C21.1322 10.2559 21.3893 10.3535 21.5977 10.5488C21.8125 10.7441 21.9948 11.0339 22.1445 11.418C22.3268 11.8737 22.5221 12.2546 22.7305 12.5605C22.9453 12.8665 23.2448 13.1204 23.6289 13.3223C24.013 13.5176 24.5176 13.6152 25.1426 13.6152C26.002 13.6152 26.6986 13.4167 27.2324 13.0195C27.7728 12.6159 28.043 12.1146 28.043 11.5156C28.043 11.0404 27.8965 10.6562 27.6035 10.3633C27.3171 10.0638 26.9427 9.83594 26.4805 9.67969C26.0247 9.52344 25.4128 9.35742 24.6445 9.18164C23.6159 8.94076 22.7533 8.66081 22.0566 8.3418C21.3665 8.01628 20.8164 7.57682 20.4062 7.02344C20.0026 6.46354 19.8008 5.77018 19.8008 4.94336C19.8008 4.1556 20.0156 3.45573 20.4453 2.84375C20.875 2.23177 21.4967 1.76302 22.3105 1.4375C23.1243 1.10547 24.0814 0.939453 25.1816 0.939453C26.0605 0.939453 26.819 1.05013 27.457 1.27148C28.1016 1.48633 28.6354 1.77604 29.0586 2.14062C29.4818 2.4987 29.791 2.8763 29.9863 3.27344C30.1816 3.67057 30.2793 4.05794 30.2793 4.43555C30.2793 4.7806 30.1556 5.0931 29.9082 5.37305C29.6673 5.64648 29.3646 5.7832 29 5.7832C28.668 5.7832 28.4141 5.70182 28.2383 5.53906C28.069 5.36979 27.8835 5.09635 27.6816 4.71875C27.4212 4.17839 27.1087 3.75846 26.7441 3.45898C26.3796 3.15299 25.7936 3 24.9863 3C24.2376 3 23.6322 3.16602 23.1699 3.49805C22.7142 3.82357 22.4863 4.21745 22.4863 4.67969C22.4863 4.96615 22.5645 5.21354 22.7207 5.42188C22.877 5.63021 23.0918 5.80924 23.3652 5.95898C23.6387 6.10872 23.9154 6.22591 24.1953 6.31055C24.4753 6.39518 24.9375 6.51888 25.582 6.68164C26.3893 6.87044 27.1185 7.07878 27.7695 7.30664C28.4271 7.53451 28.9837 7.8112 29.4395 8.13672C29.9017 8.46224 30.2598 8.87565 30.5137 9.37695C30.7741 9.87174 30.9043 10.4805 30.9043 11.2031ZM44.2441 11.2031C44.2441 12.069 44.0195 12.847 43.5703 13.5371C43.1276 14.2272 42.4766 14.7676 41.6172 15.1582C40.7578 15.5488 39.7389 15.7441 38.5605 15.7441C37.1478 15.7441 35.9824 15.4772 35.0645 14.9434C34.4134 14.5592 33.8828 14.0482 33.4727 13.4102C33.069 12.7656 32.8672 12.1406 32.8672 11.5352C32.8672 11.1836 32.9876 10.8841 33.2285 10.6367C33.4759 10.3828 33.7884 10.2559 34.166 10.2559C34.472 10.2559 34.7292 10.3535 34.9375 10.5488C35.1523 10.7441 35.3346 11.0339 35.4844 11.418C35.6667 11.8737 35.862 12.2546 36.0703 12.5605C36.2852 12.8665 36.5846 13.1204 36.9688 13.3223C37.3529 13.5176 37.8574 13.6152 38.4824 13.6152C39.3418 13.6152 40.0384 13.4167 40.5723 13.0195C41.1126 12.6159 41.3828 12.1146 41.3828 11.5156C41.3828 11.0404 41.2363 10.6562 40.9434 10.3633C40.6569 10.0638 40.2826 9.83594 39.8203 9.67969C39.3646 9.52344 38.7526 9.35742 37.9844 9.18164C36.9557 8.94076 36.0931 8.66081 35.3965 8.3418C34.7064 8.01628 34.1562 7.57682 33.7461 7.02344C33.3424 6.46354 33.1406 5.77018 33.1406 4.94336C33.1406 4.1556 33.3555 3.45573 33.7852 2.84375C34.2148 2.23177 34.8366 1.76302 35.6504 1.4375C36.4642 1.10547 37.4212 0.939453 38.5215 0.939453C39.4004 0.939453 40.1589 1.05013 40.7969 1.27148C41.4414 1.48633 41.9753 1.77604 42.3984 2.14062C42.8216 2.4987 43.1309 2.8763 43.3262 3.27344C43.5215 3.67057 43.6191 4.05794 43.6191 4.43555C43.6191 4.7806 43.4954 5.0931 43.248 5.37305C43.0072 5.64648 42.7044 5.7832 42.3398 5.7832C42.0078 5.7832 41.7539 5.70182 41.5781 5.53906C41.4089 5.36979 41.2233 5.09635 41.0215 4.71875C40.7611 4.17839 40.4486 3.75846 40.084 3.45898C39.7194 3.15299 39.1335 3 38.3262 3C37.5775 3 36.972 3.16602 36.5098 3.49805C36.054 3.82357 35.8262 4.21745 35.8262 4.67969C35.8262 4.96615 35.9043 5.21354 36.0605 5.42188C36.2168 5.63021 36.4316 5.80924 36.7051 5.95898C36.9785 6.10872 37.2552 6.22591 37.5352 6.31055C37.8151 6.39518 38.2773 6.51888 38.9219 6.68164C39.7292 6.87044 40.4583 7.07878 41.1094 7.30664C41.7669 7.53451 42.3236 7.8112 42.7793 8.13672C43.2415 8.46224 43.5996 8.87565 43.8535 9.37695C44.1139 9.87174 44.2441 10.4805 44.2441 11.2031Z" fill="#FFFDEF"/>
<path d="M50.5723 9.53809H48.9902V14.7383C48.9902 15.0378 48.9235 15.2607 48.79 15.4072C48.6566 15.5505 48.484 15.6221 48.2725 15.6221C48.0576 15.6221 47.8818 15.5488 47.7451 15.4023C47.6117 15.2559 47.5449 15.0345 47.5449 14.7383V9.53809H45.9629C45.7155 9.53809 45.5316 9.48438 45.4111 9.37695C45.2907 9.26628 45.2305 9.12142 45.2305 8.94238C45.2305 8.75684 45.2923 8.61035 45.416 8.50293C45.543 8.39551 45.7253 8.3418 45.9629 8.3418H50.5723C50.8229 8.3418 51.0085 8.39714 51.1289 8.50781C51.2526 8.61849 51.3145 8.76335 51.3145 8.94238C51.3145 9.12142 51.2526 9.26628 51.1289 9.37695C51.0052 9.48438 50.8197 9.53809 50.5723 9.53809ZM56.1191 14.6895L55.7773 13.791H52.8672L52.5254 14.709C52.3919 15.0671 52.278 15.3096 52.1836 15.4365C52.0892 15.5602 51.9346 15.6221 51.7197 15.6221C51.5374 15.6221 51.3763 15.5553 51.2363 15.4219C51.0964 15.2884 51.0264 15.137 51.0264 14.9678C51.0264 14.8701 51.0426 14.7692 51.0752 14.665C51.1077 14.5609 51.1615 14.416 51.2363 14.2305L53.0674 9.58203C53.1195 9.44857 53.1813 9.28906 53.2529 9.10352C53.3278 8.91471 53.4059 8.75846 53.4873 8.63477C53.5719 8.51107 53.681 8.41178 53.8145 8.33691C53.9512 8.25879 54.1188 8.21973 54.3174 8.21973C54.5192 8.21973 54.6868 8.25879 54.8203 8.33691C54.957 8.41178 55.0661 8.50944 55.1475 8.62988C55.2321 8.75033 55.3021 8.88053 55.3574 9.02051C55.416 9.15723 55.4893 9.34115 55.5771 9.57227L57.4473 14.1914C57.5938 14.543 57.667 14.7985 57.667 14.958C57.667 15.124 57.597 15.277 57.457 15.417C57.3203 15.5537 57.1543 15.6221 56.959 15.6221C56.8451 15.6221 56.7474 15.6009 56.666 15.5586C56.5846 15.5195 56.5163 15.4658 56.4609 15.3975C56.4056 15.3258 56.3454 15.2184 56.2803 15.0752C56.2184 14.9287 56.1647 14.8001 56.1191 14.6895ZM53.248 12.7021H55.3867L54.3076 9.74805L53.248 12.7021ZM58.4727 14.1084L60.0742 11.7695L58.7266 9.68945C58.5996 9.48763 58.5036 9.3151 58.4385 9.17188C58.3766 9.02539 58.3457 8.88542 58.3457 8.75195C58.3457 8.61523 58.4059 8.49316 58.5264 8.38574C58.6501 8.27507 58.7998 8.21973 58.9756 8.21973C59.1774 8.21973 59.3337 8.27995 59.4443 8.40039C59.5583 8.51758 59.7145 8.7373 59.9131 9.05957L60.9873 10.7979L62.1348 9.05957C62.2292 8.91309 62.3089 8.78776 62.374 8.68359C62.4424 8.57943 62.5075 8.49316 62.5693 8.4248C62.6312 8.35645 62.6995 8.30599 62.7744 8.27344C62.8525 8.23763 62.9421 8.21973 63.043 8.21973C63.2253 8.21973 63.3734 8.27507 63.4873 8.38574C63.6045 8.49316 63.6631 8.62174 63.6631 8.77148C63.6631 8.98958 63.5378 9.28581 63.2871 9.66016L61.876 11.7695L63.3945 14.1084C63.5312 14.3135 63.6305 14.4844 63.6924 14.6211C63.7542 14.7546 63.7852 14.8815 63.7852 15.002C63.7852 15.1159 63.7575 15.2201 63.7021 15.3145C63.6468 15.4089 63.5687 15.4837 63.4678 15.5391C63.3669 15.5944 63.2529 15.6221 63.126 15.6221C62.9893 15.6221 62.8737 15.5928 62.7793 15.5342C62.6849 15.4788 62.6084 15.4089 62.5498 15.3242C62.4912 15.2396 62.3822 15.0752 62.2227 14.8311L60.9629 12.8486L59.625 14.8896C59.5208 15.0524 59.446 15.1663 59.4004 15.2314C59.3581 15.2965 59.306 15.36 59.2441 15.4219C59.1823 15.4837 59.109 15.5326 59.0244 15.5684C58.9398 15.6042 58.8405 15.6221 58.7266 15.6221C58.5508 15.6221 58.4043 15.5684 58.2871 15.4609C58.1732 15.3535 58.1162 15.1973 58.1162 14.9922C58.1162 14.7513 58.235 14.4567 58.4727 14.1084Z" fill="#D36829"/>
</svg>
