<svg width="106" height="23" viewBox="0 0 106 23" fill="none" xmlns="http://www.w3.org/2000/svg">
<path d="M17.6602 18.6162L14.1885 5.74023L10.6729 18.6162C10.3994 19.5928 10.1797 20.2959 10.0137 20.7256C9.85742 21.1455 9.5791 21.5264 9.17871 21.8682C8.77832 22.2002 8.24609 22.3662 7.58203 22.3662C7.04492 22.3662 6.60059 22.2637 6.24902 22.0586C5.90723 21.8633 5.62891 21.585 5.41406 21.2236C5.19922 20.8525 5.02344 20.418 4.88672 19.9199C4.75 19.4121 4.62793 18.9434 4.52051 18.5137L0.946289 4.05566C0.731445 3.21582 0.624023 2.57617 0.624023 2.13672C0.624023 1.58008 0.819336 1.11133 1.20996 0.730469C1.60059 0.349609 2.08398 0.15918 2.66016 0.15918C3.45117 0.15918 3.9834 0.413086 4.25684 0.920898C4.53027 1.42871 4.76953 2.16602 4.97461 3.13281L7.78711 15.6719L10.9365 3.93848C11.1709 3.04004 11.3809 2.35645 11.5664 1.8877C11.752 1.41895 12.0547 1.01367 12.4746 0.671875C12.8945 0.330078 13.4658 0.15918 14.1885 0.15918C14.9209 0.15918 15.4873 0.339844 15.8877 0.701172C16.2979 1.05273 16.5811 1.43848 16.7373 1.8584C16.8936 2.27832 17.1035 2.97168 17.3672 3.93848L20.5459 15.6719L23.3584 3.13281C23.4951 2.47852 23.6221 1.96582 23.7393 1.59473C23.8662 1.22363 24.0762 0.891602 24.3691 0.598633C24.6719 0.305664 25.1064 0.15918 25.6729 0.15918C26.2393 0.15918 26.7178 0.349609 27.1084 0.730469C27.5088 1.10156 27.709 1.57031 27.709 2.13672C27.709 2.53711 27.6016 3.17676 27.3867 4.05566L23.8125 18.5137C23.5684 19.4902 23.3633 20.208 23.1973 20.667C23.041 21.1162 22.7676 21.5117 22.377 21.8535C21.9961 22.1953 21.4541 22.3662 20.751 22.3662C20.0869 22.3662 19.5547 22.2002 19.1543 21.8682C18.7539 21.5361 18.4756 21.165 18.3193 20.7549C18.1631 20.335 17.9434 19.6221 17.6602 18.6162ZM46.9277 15.5547C46.9277 16.8535 46.5908 18.0205 45.917 19.0557C45.2529 20.0908 44.2764 20.9014 42.9873 21.4873C41.6982 22.0732 40.1699 22.3662 38.4023 22.3662C36.2832 22.3662 34.5352 21.9658 33.1582 21.165C32.1816 20.5889 31.3857 19.8223 30.7705 18.8652C30.165 17.8984 29.8623 16.9609 29.8623 16.0527C29.8623 15.5254 30.043 15.0762 30.4043 14.7051C30.7754 14.3242 31.2441 14.1338 31.8105 14.1338C32.2695 14.1338 32.6553 14.2803 32.9678 14.5732C33.29 14.8662 33.5635 15.3008 33.7881 15.877C34.0615 16.5605 34.3545 17.1318 34.667 17.5908C34.9893 18.0498 35.4385 18.4307 36.0146 18.7334C36.5908 19.0264 37.3477 19.1729 38.2852 19.1729C39.5742 19.1729 40.6191 18.875 41.4199 18.2793C42.2305 17.6738 42.6357 16.9219 42.6357 16.0234C42.6357 15.3105 42.416 14.7344 41.9766 14.2949C41.5469 13.8457 40.9854 13.5039 40.292 13.2695C39.6084 13.0352 38.6904 12.7861 37.5381 12.5225C35.9951 12.1611 34.7012 11.7412 33.6562 11.2627C32.6211 10.7744 31.7959 10.1152 31.1807 9.28516C30.5752 8.44531 30.2725 7.40527 30.2725 6.16504C30.2725 4.9834 30.5947 3.93359 31.2393 3.01562C31.8838 2.09766 32.8164 1.39453 34.0371 0.90625C35.2578 0.408203 36.6934 0.15918 38.3438 0.15918C39.6621 0.15918 40.7998 0.325195 41.7568 0.657227C42.7236 0.979492 43.5244 1.41406 44.1592 1.96094C44.7939 2.49805 45.2578 3.06445 45.5508 3.66016C45.8438 4.25586 45.9902 4.83691 45.9902 5.40332C45.9902 5.9209 45.8047 6.38965 45.4336 6.80957C45.0723 7.21973 44.6182 7.4248 44.0713 7.4248C43.5732 7.4248 43.1924 7.30273 42.9287 7.05859C42.6748 6.80469 42.3965 6.39453 42.0938 5.82812C41.7031 5.01758 41.2344 4.3877 40.6875 3.93848C40.1406 3.47949 39.2617 3.25 38.0508 3.25C36.9277 3.25 36.0195 3.49902 35.3262 3.99707C34.6426 4.48535 34.3008 5.07617 34.3008 5.76953C34.3008 6.19922 34.418 6.57031 34.6523 6.88281C34.8867 7.19531 35.209 7.46387 35.6191 7.68848C36.0293 7.91309 36.4443 8.08887 36.8643 8.21582C37.2842 8.34277 37.9775 8.52832 38.9443 8.77246C40.1553 9.05566 41.249 9.36816 42.2256 9.70996C43.2119 10.0518 44.0469 10.4668 44.7305 10.9551C45.4238 11.4434 45.9609 12.0635 46.3418 12.8154C46.7324 13.5576 46.9277 14.4707 46.9277 15.5547ZM66.9375 15.5547C66.9375 16.8535 66.6006 18.0205 65.9268 19.0557C65.2627 20.0908 64.2861 20.9014 62.9971 21.4873C61.708 22.0732 60.1797 22.3662 58.4121 22.3662C56.293 22.3662 54.5449 21.9658 53.168 21.165C52.1914 20.5889 51.3955 19.8223 50.7803 18.8652C50.1748 17.8984 49.8721 16.9609 49.8721 16.0527C49.8721 15.5254 50.0527 15.0762 50.4141 14.7051C50.7852 14.3242 51.2539 14.1338 51.8203 14.1338C52.2793 14.1338 52.665 14.2803 52.9775 14.5732C53.2998 14.8662 53.5732 15.3008 53.7979 15.877C54.0713 16.5605 54.3643 17.1318 54.6768 17.5908C54.999 18.0498 55.4482 18.4307 56.0244 18.7334C56.6006 19.0264 57.3574 19.1729 58.2949 19.1729C59.584 19.1729 60.6289 18.875 61.4297 18.2793C62.2402 17.6738 62.6455 16.9219 62.6455 16.0234C62.6455 15.3105 62.4258 14.7344 61.9863 14.2949C61.5566 13.8457 60.9951 13.5039 60.3018 13.2695C59.6182 13.0352 58.7002 12.7861 57.5479 12.5225C56.0049 12.1611 54.7109 11.7412 53.666 11.2627C52.6309 10.7744 51.8057 10.1152 51.1904 9.28516C50.585 8.44531 50.2822 7.40527 50.2822 6.16504C50.2822 4.9834 50.6045 3.93359 51.249 3.01562C51.8936 2.09766 52.8262 1.39453 54.0469 0.90625C55.2676 0.408203 56.7031 0.15918 58.3535 0.15918C59.6719 0.15918 60.8096 0.325195 61.7666 0.657227C62.7334 0.979492 63.5342 1.41406 64.1689 1.96094C64.8037 2.49805 65.2676 3.06445 65.5605 3.66016C65.8535 4.25586 66 4.83691 66 5.40332C66 5.9209 65.8145 6.38965 65.4434 6.80957C65.082 7.21973 64.6279 7.4248 64.0811 7.4248C63.583 7.4248 63.2021 7.30273 62.9385 7.05859C62.6846 6.80469 62.4062 6.39453 62.1035 5.82812C61.7129 5.01758 61.2441 4.3877 60.6973 3.93848C60.1504 3.47949 59.2715 3.25 58.0605 3.25C56.9375 3.25 56.0293 3.49902 55.3359 3.99707C54.6523 4.48535 54.3105 5.07617 54.3105 5.76953C54.3105 6.19922 54.4277 6.57031 54.6621 6.88281C54.8965 7.19531 55.2188 7.46387 55.6289 7.68848C56.0391 7.91309 56.4541 8.08887 56.874 8.21582C57.2939 8.34277 57.9873 8.52832 58.9541 8.77246C60.165 9.05566 61.2588 9.36816 62.2354 9.70996C63.2217 10.0518 64.0566 10.4668 64.7402 10.9551C65.4336 11.4434 65.9707 12.0635 66.3516 12.8154C66.7422 13.5576 66.9375 14.4707 66.9375 15.5547Z" fill="black"/>
<path d="M79.1445 10.0762H75.9805V20.4766C75.9805 21.0755 75.847 21.5215 75.5801 21.8145C75.3132 22.1009 74.9681 22.2441 74.5449 22.2441C74.1152 22.2441 73.7637 22.0977 73.4902 21.8047C73.2233 21.5117 73.0898 21.069 73.0898 20.4766V10.0762H69.9258C69.431 10.0762 69.0632 9.96875 68.8223 9.75391C68.5814 9.53255 68.4609 9.24284 68.4609 8.88477C68.4609 8.51367 68.5846 8.2207 68.832 8.00586C69.0859 7.79102 69.4505 7.68359 69.9258 7.68359H79.1445C79.6458 7.68359 80.0169 7.79427 80.2578 8.01562C80.5052 8.23698 80.6289 8.52669 80.6289 8.88477C80.6289 9.24284 80.5052 9.53255 80.2578 9.75391C80.0104 9.96875 79.6393 10.0762 79.1445 10.0762ZM90.2383 20.3789L89.5547 18.582H83.7344L83.0508 20.418C82.7839 21.1341 82.556 21.6191 82.3672 21.873C82.1784 22.1204 81.8691 22.2441 81.4395 22.2441C81.0749 22.2441 80.7526 22.1107 80.4727 21.8438C80.1927 21.5768 80.0527 21.2741 80.0527 20.9355C80.0527 20.7402 80.0853 20.5384 80.1504 20.3301C80.2155 20.1217 80.3229 19.832 80.4727 19.4609L84.1348 10.1641C84.2389 9.89714 84.3626 9.57812 84.5059 9.20703C84.6556 8.82943 84.8118 8.51693 84.9746 8.26953C85.1439 8.02214 85.362 7.82357 85.6289 7.67383C85.9023 7.51758 86.2376 7.43945 86.6348 7.43945C87.0384 7.43945 87.3737 7.51758 87.6406 7.67383C87.9141 7.82357 88.1322 8.01888 88.2949 8.25977C88.4642 8.50065 88.6042 8.76107 88.7148 9.04102C88.832 9.31445 88.9785 9.68229 89.1543 10.1445L92.8945 19.3828C93.1875 20.0859 93.334 20.597 93.334 20.916C93.334 21.248 93.194 21.554 92.9141 21.834C92.6406 22.1074 92.3086 22.2441 91.918 22.2441C91.6901 22.2441 91.4948 22.2018 91.332 22.1172C91.1693 22.0391 91.0326 21.9316 90.9219 21.7949C90.8112 21.6517 90.6908 21.4368 90.5605 21.1504C90.4368 20.8574 90.3294 20.6003 90.2383 20.3789ZM84.4961 16.4043H88.7734L86.6152 10.4961L84.4961 16.4043ZM94.9453 19.2168L98.1484 14.5391L95.4531 10.3789C95.1992 9.97526 95.0072 9.63021 94.877 9.34375C94.7533 9.05078 94.6914 8.77083 94.6914 8.50391C94.6914 8.23047 94.8118 7.98633 95.0527 7.77148C95.3001 7.55013 95.5996 7.43945 95.9512 7.43945C96.3548 7.43945 96.6673 7.5599 96.8887 7.80078C97.1165 8.03516 97.429 8.47461 97.8262 9.11914L99.9746 12.5957L102.27 9.11914C102.458 8.82617 102.618 8.57552 102.748 8.36719C102.885 8.15885 103.015 7.98633 103.139 7.84961C103.262 7.71289 103.399 7.61198 103.549 7.54688C103.705 7.47526 103.884 7.43945 104.086 7.43945C104.451 7.43945 104.747 7.55013 104.975 7.77148C105.209 7.98633 105.326 8.24349 105.326 8.54297C105.326 8.97917 105.076 9.57161 104.574 10.3203L101.752 14.5391L104.789 19.2168C105.062 19.627 105.261 19.9688 105.385 20.2422C105.508 20.5091 105.57 20.763 105.57 21.0039C105.57 21.2318 105.515 21.4401 105.404 21.6289C105.294 21.8177 105.137 21.9674 104.936 22.0781C104.734 22.1888 104.506 22.2441 104.252 22.2441C103.979 22.2441 103.747 22.1855 103.559 22.0684C103.37 21.9577 103.217 21.8177 103.1 21.6484C102.982 21.4792 102.764 21.1504 102.445 20.6621L99.9258 16.6973L97.25 20.7793C97.0417 21.1048 96.8919 21.3327 96.8008 21.4629C96.7161 21.5931 96.612 21.7201 96.4883 21.8438C96.3646 21.9674 96.2181 22.0651 96.0488 22.1367C95.8796 22.2083 95.681 22.2441 95.4531 22.2441C95.1016 22.2441 94.8086 22.1367 94.5742 21.9219C94.3464 21.707 94.2324 21.3945 94.2324 20.9844C94.2324 20.5026 94.4701 19.9134 94.9453 19.2168Z" fill="#D36829"/>
</svg>
