<svg width="76" height="61" viewBox="0 0 76 61" fill="none" xmlns="http://www.w3.org/2000/svg">
<g clip-path="url(#clip0_48_11557)">
<path d="M31.0835 40.0209C36.8712 40.0209 41.563 35.3461 41.563 29.5794C41.563 23.8127 36.8712 19.1379 31.0835 19.1379C25.2958 19.1379 20.604 23.8127 20.604 29.5794C20.604 35.3461 25.2958 40.0209 31.0835 40.0209Z" fill="#D36829"/>
<path d="M74.4497 15.9177C70.383 14.7698 66.3162 13.6218 62.2495 12.4739C62.9051 16.7437 63.5606 21.0135 64.2162 25.2833C67.0357 22.05 71.2355 18.7621 74.4497 15.9177Z" fill="#92B29B"/>
<path d="M49.7772 50.3393C51.2856 49.4099 52.5762 47.7659 53.7857 46.4459C54.4377 45.7302 54.5521 44.6695 54.0718 43.8068C53.3806 42.5675 52.4078 41.4678 51.2544 40.6261C50.9593 40.41 50.8689 40.0162 51.0451 39.7094C53.7506 35.0592 53.5659 35.2266 53.8956 35.1003C56.216 34.2054 58.6494 33.6615 61.128 33.4814C61.3553 33.4649 61.6083 33.3217 61.7423 33.1379C61.9802 32.8085 62.3416 32.3112 60.095 23.3647C59.8571 22.4232 59.0439 21.7413 58.0697 21.6685C56.2456 21.5229 54.4549 21.3401 52.7963 21.664C52.4877 21.7225 52.179 21.58 52.0344 21.3039C51.222 19.7352 49.8436 17.5825 50.0648 15.9672C50.1702 15.2043 51.5209 13.5952 52.6939 12.8353C53.4137 12.3694 54.0943 11.533 53.2601 10.1984C52.1172 8.36575 48.5997 4.75669 47.3995 4.37485C46.6323 4.13533 46.3345 4.66918 41.7753 9.09867C41.545 9.32372 41.1986 9.36498 40.908 9.19769C37.3666 7.16955 37.172 7.26588 37.0155 6.7859L35.466 2.02457C35.1844 1.16112 34.4165 0.551982 33.4091 0.470215C25.5038 0.817937 25.5035 0.615731 25.1573 1.24439L25.1558 1.24364C24.3358 2.77999 24.9747 3.45913 24.7823 4.73868C24.657 5.56036 24.9901 7.6022 24.8682 8.24723C24.055 8.72433 20.3703 9.99137 19.2922 10.1129C17.2699 7.73936 15.0639 5.61188 12.8413 5.62163C11.8008 5.63063 10.8898 6.10549 10.1324 7.03495C9.0557 8.35675 8.00465 9.74006 7.0078 11.1459C6.37988 12.0318 6.47927 13.2419 7.24271 14.0243L10.4486 17.3018C10.6428 17.4998 10.7015 17.7864 10.6037 18.0489C10.0304 19.566 9.70872 22.2845 8.80875 23.0496C7.80889 23.8973 4.72651 23.4412 3.71611 23.2904C2.43715 23.1036 1.32384 23.9793 1.14721 25.1793C0.727322 27.9723 -0.0543957 31.4849 0.337085 34.2421C0.505735 35.4394 1.64262 36.2811 2.86684 36.1168C6.39197 35.6035 7.28103 35.5917 7.81642 35.876C8.76378 36.379 9.53422 39.973 9.96069 41.2937C9.20435 42.3785 6.82267 44.5258 6.87379 45.8803C6.94429 47.645 9.11026 48.5505 9.99984 49.2305C11.1974 50.141 12.3921 51.1336 13.665 52.1824C14.6046 52.9574 15.9749 52.8508 16.7865 51.9514C22.9467 45.1293 18.7089 47.8735 25.8936 50.442C26.2505 50.5688 26.371 50.9649 26.3077 51.2905C26.0638 52.5313 25.9147 53.8538 25.8244 55.58C25.7701 56.6249 26.4673 57.5859 27.4853 57.8642C29.9332 58.5378 33.2159 59.5092 34.6935 57.4464C35.5714 56.2206 35.2703 54.4494 35.0052 52.8876C35.0066 52.627 34.6599 51.9297 35.2748 51.5883C41.8579 47.9168 41.9991 47.763 42.5433 47.7437C43.108 47.7587 43.6395 48.1015 44.2554 48.5591C45.7956 49.7026 47.4134 51.7972 49.7772 50.3393ZM42.4876 46.2088C41.4729 46.2443 41.1956 46.5255 34.5219 50.247C32.8472 51.1806 33.498 52.9897 33.4844 53.1434C34.1233 56.9018 33.8757 58.0315 28.193 56.4651L27.8933 56.3826C27.5696 56.2934 27.3467 55.9895 27.3633 55.6595C27.4506 54.0091 27.5907 52.7526 27.8195 51.5868C28.0439 50.4563 27.4521 49.3663 26.4146 48.9957C24.8953 48.4526 23.4919 47.6619 22.2435 46.6454C21.2548 45.8407 19.8181 46.0022 19.0317 46.998C18.3269 47.893 17.2172 49.1773 15.6391 50.9236C15.3831 51.2102 14.9449 51.244 14.6468 50.9979C13.3468 49.9268 12.1283 48.916 10.9365 48.0092C10.1226 47.3918 8.44701 46.6116 8.41423 45.8397C8.46542 45.4114 9.6264 44.0768 10.1835 43.4362C12.0088 41.3362 11.6512 41.7044 11.0855 39.6321C9.44774 33.6287 8.75674 33.7079 2.66205 34.5939C2.2871 34.648 1.91517 34.3862 1.86397 34.0276C1.51017 31.5348 2.26498 28.1099 2.67259 25.4036C2.72957 25.0109 3.09364 24.7503 3.48874 24.8102C5.85436 25.1606 8.4579 25.3646 9.8086 24.2183C11.2165 23.024 11.3872 20.3467 12.0462 18.5883C12.3579 17.7631 12.1682 16.8592 11.5538 16.2298L8.34797 12.9523C8.10102 12.7002 8.06789 12.3131 8.26666 12.0326C9.24393 10.6545 10.2754 9.29897 11.3295 8.00267C11.7902 7.43929 12.2887 7.16248 12.8548 7.15798C13.135 7.34414 14.2079 6.47399 18.3044 11.3282C18.6191 11.7033 19.116 11.6673 19.3012 11.6507C20.414 11.5652 25.6557 9.96211 26.1677 9.11892C26.7554 8.15078 26.1765 5.8325 26.3062 4.96748C26.5054 3.64795 26.1052 3.0282 26.3634 2.30513L33.3745 2.00281C33.6636 2.02832 33.909 2.22261 33.9994 2.49867L35.5488 7.2585C35.9444 8.48233 36.6956 8.55289 40.1385 10.5292C41.036 11.0424 42.1247 10.9058 42.855 10.1947C44.0843 8.97772 46.398 6.67238 47.2008 5.99672C48.2082 6.69287 50.887 9.30347 51.9501 11.0101C52.0916 11.2359 52.1007 11.3312 52.1037 11.3319C52.0976 11.3424 52.0525 11.4182 51.8537 11.5472C50.625 12.3424 48.7382 14.2996 48.5379 15.7587C48.2402 17.9216 49.7135 20.1644 50.6641 22.0083C51.1249 22.8958 52.1022 23.3586 53.0915 23.1719C54.5495 22.8886 56.2811 23.0682 57.9552 23.2004C58.2654 23.2236 58.5244 23.4397 58.5982 23.7382C59.5529 27.5393 60.2426 30.7673 60.3751 32.0036C57.9658 32.2362 55.6017 32.795 53.3369 33.6682C52.8521 33.8558 52.441 34.2121 52.182 34.6697C51.7433 35.4436 51.4026 36.0313 49.7079 38.9464C49.1418 39.9329 49.4143 41.1879 50.3434 41.8653C51.3176 42.5765 52.1398 43.5052 52.7241 44.5532C52.8837 44.8398 52.8521 45.1856 52.6443 45.4129C47.7156 50.818 48.3914 49.708 45.177 47.3273C44.5536 46.8652 43.6154 46.1541 42.4876 46.2088Z" fill="#3F3F5A"/>
<path d="M74.9615 16.4925C75.4183 16.0877 75.2415 15.343 74.6604 15.1789L62.4604 11.7349C61.9112 11.5832 61.4048 12.0426 61.4876 12.5901L63.4542 25.3992C63.5535 26.0493 64.3699 26.2771 64.7989 25.7871C65.9704 24.4428 67.3858 23.0976 68.8751 21.7645C76.5356 30.0117 75.4082 40.2855 69.0784 44.8676C68.484 40.4743 64.0452 37.7304 60.542 40.5181C56.5051 43.7288 60.4515 50.2822 67.3783 47.5472C65.5332 54.897 54.335 61.3705 44.2793 58.1351C43.8787 58.0069 43.4405 58.2267 43.3095 58.6295C43.1785 59.0331 43.3999 59.4659 43.8064 59.5965C55.54 63.3799 68.2017 54.9752 69.0949 46.6973C76.9789 41.961 78.6015 30.0035 70.0255 20.7449C71.844 19.1634 73.5194 17.7661 74.9615 16.4925ZM61.5042 41.7184C64.2889 39.5047 67.5687 42.3168 67.5997 45.7656C61.9712 48.5932 58.6576 43.985 61.5042 41.7184ZM64.7341 23.5801L63.1937 13.5383L72.8745 16.2712C70.2543 18.5366 67.1881 21.0289 64.7341 23.5801ZM39.6881 24.7068C39.3673 24.9851 39.3327 25.4705 39.6128 25.7901C41.1366 27.5357 41.096 30.078 40.5494 31.8762C39.2228 36.2362 34.4584 39.2189 29.95 38.5197C25.4326 37.8243 21.8036 33.5521 21.8608 28.9963C21.9196 24.442 25.6555 20.2628 30.1894 19.6807C30.6126 19.6259 30.9107 19.2411 30.8565 18.8202C30.8023 18.3994 30.4093 18.1038 29.9937 18.1563C24.7264 18.833 20.3866 23.6866 20.3189 28.9768C20.2473 34.6907 25.2061 40.1551 31.2571 40.1551C36.0033 40.1551 40.6352 36.8911 42.0251 32.3218C42.8758 29.5259 42.397 26.637 40.7752 24.7818C40.4967 24.4608 40.0088 24.4278 39.6881 24.7068Z" fill="#3F3F5A"/>
</g>
<defs>
<clipPath id="clip0_48_11557">
<rect width="76" height="61" fill="white"/>
</clipPath>
</defs>
</svg>
