<svg width="82" height="75" viewBox="0 0 82 75" fill="none" xmlns="http://www.w3.org/2000/svg">
<path d="M47.3176 1.63121C44.0994 0.547849 41.9061 4.23752 39.9371 6.10154C33.83 11.8832 25.9289 19.363 19.8817 25.0879C19.2825 25.6551 17.0075 28.5192 16.2572 28.5192C21.3324 27.986 25.9205 25.5194 30.0415 22.6409C33.6083 20.1496 43.8264 13.0714 47.6162 10.9743C48.3178 10.586 52.0701 9.44281 52.2615 8.75103C52.2912 8.64388 48.5007 2.0295 47.3176 1.63121ZM14.3051 45.7901C13.3354 43.4083 12.1152 40.1953 10.5249 38.1797C8.7521 35.9327 7.36397 38.449 6.66111 39.9315C5.393 42.606 0.771009 44.2586 2.32381 47.716C2.78143 48.7349 3.59298 49.5452 4.38706 50.3307C27.2511 72.9488 26.1532 72.8345 28.3275 73.4718C28.8629 73.6287 29.5477 73.624 29.8623 73.175C30.0691 72.8798 30.0423 72.4902 29.9902 72.1368C29.6017 69.5054 27.8914 67.6731 27.0111 65.2926C24.4292 58.3101 16.6323 47.7531 12.7168 42.4898C11.9855 41.5067 11.1748 40.4658 9.98586 40.0941C7.15663 39.2096 4.90869 42.2997 3.9833 44.4528C2.97081 46.8084 3.45536 48.3226 5.18763 50.1613C10.0224 55.2932 10.5365 55.2416 29.6262 73.2848C29.0656 70.8246 28.291 68.4379 27.3502 66.1124" fill="#92B29B"/>
<path d="M44.5712 58.8182L36.9332 63.8087C36.162 64.3126 35.1284 64.0959 34.6245 63.3247L24.5826 47.9556C24.0787 47.1844 24.2954 46.1508 25.0666 45.6469L32.7047 40.6563C33.4759 40.1525 34.5095 40.3692 35.0134 41.1403L45.0553 56.5095C45.5591 57.2807 45.3424 58.3143 44.5712 58.8182Z" fill="#D36829"/>
<path d="M80.4165 35.2781C76.9076 29.672 70.5095 15.668 62.9312 5.89499C61.4429 3.97641 58.6916 3.53836 56.6631 4.8991C55.282 5.82609 53.8735 6.72021 52.4681 7.61862C52.3515 7.34537 51.3533 5.66991 49.6887 2.77148C48.2393 0.262546 44.8114 -0.209294 42.7394 1.82491C10.351 33.6205 12.9104 31.0596 12.6473 31.3701C11.1504 32.3199 9.34857 33.1229 9.092 35.7224L2.16068 43.8763C0.644925 45.7635 0.819519 48.442 2.56624 50.1061C4.30671 51.7643 6.29614 53.6003 8.28479 55.4351C22.0887 68.1701 26.3949 74.4467 29.5657 74.4467C30.3844 74.4467 31.0714 73.9837 31.3547 73.0108C31.6984 71.8333 30.928 70.6236 30.3087 69.6516C29.3161 68.0876 30.0427 68.4219 21.2604 54.3378C14.6838 43.7867 16.1831 45.9348 11.1221 37.7655C10.2601 36.3734 10.6696 34.5261 12.035 33.6473C26.9343 24.0582 42.8007 16.1356 57.5572 6.23009C58.8874 5.33833 60.6912 5.62214 61.6644 6.87757C69.0587 16.4145 75.533 30.5001 79.0573 36.1292C80.8045 38.9182 81.5048 40.4538 75.6429 44.0661C74.6151 44.5863 72.2853 46.2966 69.1736 46.5097C70.1014 41.5799 66.4832 37.8318 63.6312 39.1603C60.5499 40.5967 61.2222 46.7046 67.0189 47.9648C65.8285 50.3996 63.3594 52.0872 60.8549 52.7297C61.1897 50.7647 60.4039 49.1248 59.2546 47.4958C58.8451 46.9149 57.6057 45.1501 55.7478 45.1854C54.1702 45.2194 53.0005 46.5825 52.6607 47.9111C51.9517 50.686 54.101 54.2494 58.2829 54.57C56.2081 57.3308 49.8798 61.1103 47.051 62.8229C40.7607 66.632 38.5859 68.2514 37.8711 68.7149C36.9853 69.2995 37.8739 70.6329 38.7542 70.0537C38.9168 69.9404 43.7002 66.7265 47.8817 64.1946C51.499 62.0044 58.4249 57.9091 60.2418 54.4909C63.6534 53.9777 67.2935 51.612 68.6975 48.1323C71.0268 48.1096 73.5306 47.2539 76.3374 45.522C81.5847 42.288 83.4398 40.1071 80.4165 35.2781ZM14.9797 47.1908C19.5352 54.79 25.5079 63.8104 28.4352 69.6368C28.8533 70.4668 30.009 71.8989 29.8155 72.5618C29.7935 72.6362 29.7348 72.8112 29.6565 72.8327C29.5148 72.8703 28.6653 72.9419 25.9533 70.4162C21.3367 66.1291 20.4829 64.5063 9.37229 54.2568C7.3899 52.4279 5.40673 50.5978 3.67175 48.945C2.53336 47.8602 2.4214 46.1127 3.39615 44.8976L9.38247 37.8559C9.59305 38.3946 11.6481 41.6325 14.9797 47.1908ZM18.7573 27.5979L43.8621 2.96917C45.1869 1.67073 47.3742 1.97156 48.2998 3.57399C51.4502 8.97596 50.9345 8.2115 51.1653 8.46302C40.421 15.2459 30.1758 20.7204 18.7573 27.5979ZM59.1356 52.9869C55.6495 53.1108 53.6745 50.4176 54.214 48.3081C54.3996 47.5839 55.0118 46.8052 55.7823 46.7888C55.9433 46.8507 56.6657 46.6062 57.9439 48.42C58.9749 49.8798 59.6849 51.2868 59.1356 52.9869ZM67.5466 46.4345C63.3335 45.6525 62.5031 41.4554 64.3084 40.6134C65.7602 39.9417 68.4124 42.474 67.5466 46.4345Z" fill="#3F3F5A"/>
<path d="M47.8896 40.0023L68.8511 26.256C69.2207 26.0129 69.324 25.5161 69.0813 25.1458C68.8386 24.7751 68.3438 24.6725 67.9711 24.9148L47.0096 38.6612C46.1235 39.2441 47.0074 40.5778 47.8896 40.0023ZM41.3263 28.6138C43.7016 29.9967 46.9532 27.1325 48.0877 24.6126C48.4159 23.8523 48.583 23.4455 48.8769 23.2476C49.5383 22.8022 54.728 22.8465 59.7041 18.0872C60.0243 17.7811 60.0353 17.2738 59.7292 16.9536C59.4238 16.6341 58.9165 16.6232 58.5955 16.9285C56.1512 19.2667 52.9654 20.8522 49.5377 21.4081C49.046 21.4867 48.4886 21.5756 47.9812 21.9177C46.6001 22.8487 46.8321 25.1092 44.1386 26.8381C43.5013 27.248 42.947 27.4226 42.4843 27.3556C42.0818 27.2973 41.7139 26.9477 41.742 26.6506C41.8395 25.6029 40.2685 25.4451 40.1472 26.4842C39.6747 30.5953 36.4922 33.4941 34.2885 33.6668C35.0842 31.3856 35.3795 27.4978 34.1664 25.7463C33.1217 24.2411 31.1117 24.2437 30.1499 25.9174C29.1078 27.7304 28.7949 32.9165 32.0532 34.7571C31.6104 35.5651 30.8103 36.7213 29.9526 36.3954C28.805 35.9691 28.1343 38.0438 30.2165 38.0438C31.8416 38.0438 32.8572 36.6929 33.6042 35.2574C37.0464 35.6369 40.288 31.9385 41.3263 28.6138ZM32.7219 33.2867C31.0197 32.1925 30.908 29.9234 31.1998 27.9307C31.2931 27.2955 31.5037 26.298 32.1456 26.2399C32.1582 26.2388 32.1707 26.2384 32.1824 26.2384C32.4048 26.2384 32.6733 26.4071 32.8487 26.66C33.3604 27.3997 33.8045 30.3306 32.7219 33.2867Z" fill="#3F3F5A"/>
</svg>
