<svg width="75" height="76" viewBox="0 0 75 76" fill="none" xmlns="http://www.w3.org/2000/svg">
<g clip-path="url(#clip0_48_11596)">
<path d="M69.8268 40.0977C70.644 39.868 74.3014 40.4919 73.5666 41.5028C72.9236 42.3876 72.1886 43.2175 71.8295 44.2451C70.4153 48.2923 75.0516 35.1616 62.3447 72.2832C61.3382 75.2238 60.1629 75.4969 57.8698 74.6293C23.88 61.77 28.6402 63.5879 22.4579 61.2483C20.4293 60.4805 18.5943 59.3797 16.542 58.5875C14.1753 57.6739 11.8086 56.7603 9.44188 55.8466C7.73131 55.1863 5.98279 54.3156 4.20278 53.8779C3.04645 53.5936 1.8303 53.2887 1.49952 51.9136C1.20155 50.6748 1.03331 51.7875 13.5166 20.6865C14.1282 19.1628 14.9966 18.9089 16.0083 20.2223C33.6008 43.0619 34.0445 44.194 37.1153 45.7597C39.5705 47.0115 42.3767 45.9314 45.0282 45.5997C47.3426 45.3102 49.6627 45.0944 51.9877 44.9113C53.8027 44.7684 55.0545 43.9281 56.7479 43.3406C65.1075 40.4406 66.0412 41.167 67.415 41.0374C68.3918 40.9453 68.9173 40.3532 69.8268 40.0977Z" fill="#D36829"/>
<path d="M18.5557 23.4813C21.4068 23.156 23.9019 21.7807 26.6636 21.347C31.4364 20.5975 44.0314 17.0309 49.7022 15.2492C51.8148 14.5854 53.9849 13.5898 56.1513 13.152C58.2384 12.7302 60.4265 12.5329 62.5357 12.1145C63.6052 11.9023 65.0695 11.2758 66.1453 11.3386C67.688 11.4288 67.2736 12.101 67.3085 13.7016C67.4352 19.5092 67.5021 22.235 67.8124 35.9125C67.8399 37.1271 68.2708 39.0548 67.759 40.1988C67.0025 41.8901 64.1012 42.0752 62.4956 42.3545C60.6597 42.6739 58.7809 42.5109 56.9581 42.7855C53.3313 43.332 49.9043 45.1465 46.1565 45.5814C42.2768 46.0316 39.0827 47.7047 35.4589 44.9853C30.6935 41.4091 29.2817 33.8719 17.6824 23.1521L18.5557 23.4813Z" fill="#92B29B"/>
<path d="M74.593 39.3082C74.5915 39.305 74.593 39.3021 74.593 39.2989C74.5138 39.0584 74.575 38.7659 73.8978 37.5063C73.355 36.4917 73.5181 36.4599 72.5451 34.3915C72.3641 34.0064 71.9072 33.8407 71.5181 34.0207C71.1335 34.2016 70.9661 34.6612 71.1471 35.047C72.0057 36.8679 71.8913 37.0306 72.536 38.235C72.6507 38.4496 72.7562 38.6493 72.8452 38.8485C68.7566 39.6401 65.9947 40.4061 62.3927 41.1132C50.0004 43.549 51.7504 43.7909 42.6988 44.9989C40.9841 45.228 39.2302 45.4623 37.4823 45.7728C34.4248 41.2221 30.4536 37.6097 27.1927 33.3961L15.8897 18.7917C16.707 18.314 54.3663 2.01755 54.5251 1.94063C55.3736 1.52917 56.4223 1.91112 56.8144 2.79733L58.3028 6.15257C58.4762 6.54288 58.9317 6.71768 59.3223 6.54514C59.7114 6.37259 59.8878 5.91674 59.7144 5.52719L58.2259 2.17194C57.4989 0.531204 55.5306 -0.258357 53.8525 0.551212C49.9535 2.44023 68.0329 -5.67571 15.579 17.2061C14.454 17.6974 13.5899 18.597 13.142 19.7378L5.3377 39.6507C4.55473 41.6546 3.82081 42.6035 2.21448 46.7357C1.00924 49.8377 0.096393 51.2225 0.627983 52.542C1.0552 53.6075 1.55127 53.4987 7.91651 55.8633C8.88899 56.2257 9.40132 54.7716 8.45942 54.4182L6.45971 53.6655C4.0985 52.7746 2.1745 52.2434 2.06065 51.9671C1.82575 51.3788 2.5103 50.2388 3.65318 47.2948C5.03818 43.7483 6.06563 42.0236 6.77641 40.2128C15.0985 19.0441 14.4744 20.442 14.7888 19.8915L25.9712 34.3402C29.0907 38.3748 32.8933 41.9005 35.828 46.0915C34.1359 46.4429 32.4085 46.8575 31.0489 47.8765C28.0127 50.1479 28.5671 54.0667 31.821 55.3299C34.5228 56.3783 38.5994 55.0122 39.4881 52.1939C40.0581 50.3833 39.2076 48.5734 38.3781 47.184C39.8907 46.9309 41.4124 46.7274 42.9024 46.5285C52.3904 45.262 49.1867 45.2799 62.6913 42.6277C66.2723 41.9246 69.0979 41.1491 73.0789 40.3758C73.005 41.1166 72.7291 41.8933 72.4169 42.6873C63.7468 64.9282 61.6088 69.9897 60.2241 74.1616L60.2211 74.1608C58.5516 73.4644 57.0043 72.7052 55.2806 72.0556L14.8989 56.8444C13.9395 56.4849 13.3994 57.9289 14.353 58.288L54.7347 73.4993C62.268 76.336 60.2907 77.8652 63.4921 69.6927C74.5171 41.4127 74.9304 41.4994 74.5961 39.3192C74.5961 39.3152 74.593 39.3121 74.593 39.3082ZM38.0162 51.7305C37.4142 53.6339 34.28 54.6279 32.379 53.8907C30.2308 53.0584 29.9393 50.6346 31.9748 49.1107C33.2219 48.1755 35.1291 47.7985 36.7479 47.4786C37.5255 48.71 38.4524 50.3448 38.0162 51.7305Z" fill="#3F3F5A"/>
<path d="M23.1722 22.7063L64.8177 11.7982C65.7946 11.5367 66.7752 12.2801 66.7752 13.3217C66.789 21.1401 67.0133 28.8835 66.9652 36.7745C66.9622 37.2002 67.306 37.5483 67.7328 37.5506H67.7373C68.1611 37.5506 68.5065 37.2077 68.5095 36.7835C68.5576 28.8547 68.3332 21.1204 68.3195 13.3194C68.3163 11.2839 66.4079 9.79045 64.4256 10.3048L22.7801 21.2129C21.8033 21.4703 22.168 22.9562 23.1722 22.7063Z" fill="#3F3F5A"/>
<path d="M61.0791 20.4053C56.074 20.4521 52.2914 24.0342 47.9287 24.7792C45.4682 25.2001 42.8055 24.6925 40.1591 24.728C36.6725 24.7739 33.9112 26.0187 32.5856 28.1428C32.3594 28.5044 32.4695 28.9799 32.8314 29.2059C33.1891 29.4293 33.667 29.3241 33.8946 28.9595C35.377 26.5883 38.7838 26.2892 40.1802 26.2711C42.742 26.2335 45.4834 26.7627 48.1881 26.2997C52.8468 25.505 56.7626 21.878 61.0641 21.9484C62.1289 21.9167 62.0655 20.4157 61.0791 20.4053ZM60.2407 30.2073C57.1459 30.4617 55.3198 33.2058 52.833 34.2813C50.5881 35.2564 47.9119 34.7756 45.3198 34.7756C41.7652 34.7756 39.1035 36.0166 38.0056 38.1896C37.8141 38.5701 37.9664 39.0343 38.3464 39.2264C38.7211 39.4162 39.1892 39.2708 39.384 38.8859C40.5723 36.5342 43.9866 36.3157 45.4374 36.3195C48.0233 36.34 50.8673 36.8144 53.4483 35.6979C56.0652 34.5634 57.915 31.9464 60.3673 31.7459C60.7926 31.7105 61.1078 31.3383 61.0731 30.9133C61.0384 30.4883 60.6629 30.1756 60.2407 30.2073Z" fill="#3F3F5A"/>
</g>
<defs>
<clipPath id="clip0_48_11596">
<rect width="75" height="76" fill="white"/>
</clipPath>
</defs>
</svg>
