<svg width="82" height="86" viewBox="0 0 82 86" fill="none" xmlns="http://www.w3.org/2000/svg">
<g clip-path="url(#clip0_41_1776)">
<path d="M58.9759 9.25977L59.1533 59.0253C60.0588 67.3877 53.8666 66.3275 53.8666 66.3275L12.1033 66.371C12.9386 68.9051 16.1615 72.3965 18.9969 72.3965H58.2625C61.8067 72.3965 64.7181 69.5114 64.7181 65.9737V17.174C64.7181 11.3493 62.2924 9.53572 58.9759 9.25977Z" fill="#92B29B"/>
<path d="M66.6004 58.9718L59.8589 65.1164C59.8589 65.1164 61.6671 57.7428 61.8076 57.0581C61.8779 56.6894 61.9305 56.3032 62.0183 55.9345C62.0629 55.6221 62.071 55.1569 62.4396 55.2673C62.7146 55.3591 62.8026 55.8337 66.4425 58.8313C66.4951 58.8839 66.5478 58.9191 66.6004 58.9718Z" fill="#D36829"/>
<path d="M38.8518 56.0797C38.8625 56.0748 38.8887 56.0758 38.8994 56.0709C43.7509 55.6568 49.8696 54.486 54.791 53.8854C55.3659 53.8174 55.8835 54.162 56.0846 54.6893C57.0265 57.2956 59.125 63.1023 59.8528 65.1141C59.8528 65.1141 61.6745 57.7419 61.7997 57.0534C61.8037 57.034 62.0939 55.4648 62.1006 55.4471C62.1637 55.3024 62.2617 55.2063 62.4433 55.2655C62.5939 55.3131 62.6939 55.4481 62.7842 55.5617C63.8839 56.7153 75.2857 66.4476 76.0251 66.8522C76.5799 67.1797 76.6609 67.0494 76.8078 66.419C76.9068 65.8869 81.0422 24.0068 81.0589 23.8325C81.1432 23.056 80.3879 22.6242 79.5837 23.2529C78.3575 24.1762 77.608 25.0358 66.0556 34.2372C42.6327 52.9225 49.589 46.8305 38.9065 56.0792" fill="#D36829"/>
<path d="M62.1005 55.4473L80.7363 23.6852C80.9282 23.346 80.457 23.027 80.2133 23.3312L55.5923 53.9551" fill="#D36829"/>
<path d="M48.1386 22.7551C48.6196 22.7551 49.0089 22.3659 49.0089 21.8848C49.0089 21.4037 48.6196 21.0144 48.1386 21.0144H17.0432C16.5621 21.0144 16.1729 21.4037 16.1729 21.8848C16.1729 22.3659 16.5621 22.7551 17.0432 22.7551H48.1386ZM40.2202 32.3598H17.3314C16.8503 32.3598 16.461 32.7491 16.461 33.2302C16.461 33.7113 16.8503 34.1006 17.3314 34.1006H40.2202C40.7013 34.1006 41.0906 33.7113 41.0906 33.2302C41.0906 32.7491 40.7013 32.3598 40.2202 32.3598ZM35.8259 43.7596H17.3314C16.8503 43.7596 16.461 44.1489 16.461 44.63C16.461 45.1111 16.8503 45.5004 17.3314 45.5004H35.8259C36.307 45.5004 36.6963 45.1111 36.6963 44.63C36.6963 44.1489 36.307 43.7596 35.8259 43.7596ZM39.4026 43.7443C38.23 44.0468 38.7458 45.9607 40.1182 45.3287C40.5466 45.1587 40.7702 44.6793 40.6189 44.239C40.4673 43.7974 39.9714 43.4941 39.4026 43.7443Z" fill="#3F3F5A"/>
<path d="M79.0473 22.5596C76.2274 24.7748 80.6875 21.3855 65.5218 33.5611L60.2299 37.7389V13.003C60.2299 8.99921 56.9748 5.7266 52.9537 5.7266L51.9174 5.72565C52.0246 5.52569 52.0559 5.28547 51.9819 5.05194C51.7184 4.22067 51.3903 3.1837 50.786 2.29123C48.4737 -1.13459 43.9514 0.177259 43.302 4.66945C43.2519 5.01741 43.2452 5.36781 43.2496 5.71757L37.2436 5.71194C37.3445 5.51496 37.3717 5.27984 37.2995 5.05194C37.036 4.22067 36.7079 3.1837 36.1036 2.29123C33.5743 -1.45617 28.5115 0.521717 28.5673 5.70387L22.6123 5.69834C22.3506 4.86941 22.0255 3.84158 21.4195 2.94741C18.9958 -0.634944 14.1798 0.982462 13.9075 5.90924C10.4736 6.7199 8.32103 9.69407 8.32103 12.9856C8.35467 44.5873 8.23622 38.9135 8.49507 52.3611C8.59951 54.9374 8.68652 57.6008 8.33846 60.1422C6.64989 58.7322 4.8047 58.1751 3.15098 58.6277C-0.0146197 59.491 -1.22023 64.1694 1.84542 66.2C4.15669 67.7344 7.77728 67.2155 9.24357 63.6062C11.1056 65.6952 12.505 66.9517 15.3014 67.2444H52.9537C55.2862 67.2444 57.3403 66.1478 58.6807 64.4419L59.0288 65.4167C59.2632 66.0028 59.9172 66.1645 60.3901 65.7927C60.5661 65.6542 66.7953 59.9961 66.6179 60.1329C66.8821 60.3564 70.1478 63.1178 69.9432 62.9449C75.157 67.3432 75.5292 67.8885 76.5581 67.8885C77.8193 67.7739 77.7088 66.13 77.9681 63.8848C78.1593 61.8457 79.1281 52.1435 79.5 48.3052L81.9195 23.9348C82.0815 22.3798 80.4922 21.4649 79.0473 22.5596ZM6.92846 64.1633C6.00582 65.347 4.10837 65.6081 2.80281 64.7552C0.202903 62.9784 3.06055 57.2666 7.93802 62.1441C7.72914 62.823 7.41582 63.5541 6.92846 64.1633ZM75.6352 27.6368L55.2061 53.0474C54.2768 52.9228 47.5327 54.1443 41.5691 54.92C47.5896 49.5994 61.0648 39.5389 75.6352 27.6368ZM49.3436 3.2653C49.9809 4.20771 50.1886 5.33177 50.4032 5.72427L44.9854 5.71917C44.9472 2.51254 47.6743 0.79038 49.3436 3.2653ZM33.0454 2.10934C34.9089 2.37401 35.4478 5.20447 35.7135 5.71056L30.3031 5.70557C30.2787 3.18686 31.7886 1.92979 33.0454 2.10934ZM19.978 3.92318C20.3181 4.42434 20.546 5.02644 20.77 5.69664L15.6543 5.69186C15.9918 2.89923 18.447 1.65775 19.978 3.92318ZM52.9537 65.5037H15.4406C12.3671 65.1825 11.3304 63.135 9.8529 61.6566C10.5036 59.0496 10.3146 54.5285 10.2358 52.3088C9.96949 38.4751 10.0936 42.8585 10.0618 12.9856C10.0618 10.6194 11.5156 8.4292 14.0176 7.68675C14.5134 10.1824 16.2773 12.4527 18.6631 13.363C19.7497 13.7795 20.3508 12.1421 19.2835 11.7378C17.4694 11.0448 16.1209 9.32719 15.7282 7.43271L28.8045 7.44493C29.4064 9.77236 31.0947 11.8457 33.3455 12.7034C34.4383 13.1223 35.0259 11.4798 33.9659 11.0782C32.371 10.4699 31.1488 9.06402 30.6062 7.44652L43.4911 7.45853C44.0958 9.78033 45.7811 11.8474 48.0279 12.7034C48.4751 12.8748 48.9796 12.6519 49.1515 12.2002C49.3224 11.7514 49.0971 11.2482 48.6483 11.0782C47.0578 10.4716 45.8378 9.07199 45.293 7.46023L52.9537 7.46735C56.0173 7.46735 58.4892 9.9567 58.4892 13.003V39.0967C41.8893 52.2999 46.3666 48.3927 38.488 55.2855C38.0877 55.4596 37.8266 55.9296 37.9484 56.3474C38.0877 56.8 38.488 57.0611 38.9406 56.9567C39.1163 56.8981 54.7117 54.7673 54.8859 54.7459C55.0773 54.7285 55.2166 54.8678 55.2688 54.9897L57.9322 62.3704C57.0269 64.233 55.1296 65.5037 52.9537 65.5037ZM56.9051 54.3803C56.8502 54.2376 56.7594 54.1198 56.6781 53.9951L76.1653 29.7555C72.4579 36.0782 65.0435 48.7237 61.3365 55.0466C61.1834 55.6917 60.6318 58.5165 59.6903 62.1092C59.6903 62.1092 56.7207 53.8686 56.9051 54.3803ZM61.383 62.5479C62.3743 58.4897 62.6102 57.5338 62.742 56.7693C63.8721 57.8167 63.9356 57.8542 65.2831 58.9945L61.383 62.5479ZM76.0358 65.817C75.7726 65.6195 65.9522 57.3928 63.4034 54.9461L79.8862 26.8536C74.6435 79.9106 76.4147 62.0322 76.0358 65.817Z" fill="#3F3F5A"/>
<path d="M61.3624 66.3264C60.8881 66.4046 60.5677 66.8517 60.6459 67.326C61.0269 69.6373 61.4326 72.1701 60.13 74.1393C59.2036 69.9429 54.2921 70.8748 54.1895 74.1257C54.123 76.1222 56.0806 77.8283 58.532 77.2944C58.3341 79.5342 56.997 81.0689 55.0718 82.1393C53.4908 83.0198 51.66 83.4856 49.8887 83.9344C49.4229 84.0517 49.1407 84.526 49.2588 84.9918C49.3797 85.467 49.8629 85.7383 50.317 85.6208C52.1963 85.1448 54.1394 84.6518 55.9192 83.659C59.1163 81.8795 60.2817 79.4635 60.3101 76.4649C61.5265 75.5435 62.3824 74.0186 62.6527 72.2371C62.9247 70.4488 62.6263 68.64 62.3628 67.0438C62.2855 66.5695 61.8477 66.2414 61.3624 66.3264ZM55.9285 74.1818C55.9456 73.6545 56.3778 73.0769 57.0735 73.0769C58.2003 73.0769 58.4889 74.3722 58.5524 75.4755C57.1011 76.0449 55.8964 75.178 55.9285 74.1818Z" fill="#3F3F5A"/>
</g>
<defs>
<clipPath id="clip0_41_1776">
<rect width="82" height="86" fill="white"/>
</clipPath>
</defs>
</svg>
