<svg width="85" height="68" viewBox="0 0 85 68" fill="none" xmlns="http://www.w3.org/2000/svg">
<g clip-path="url(#clip0_51_38097)">
<path d="M31.4538 55.3705C42.8676 65.1082 54.6336 72.2812 65.9313 62.4164C67.3938 61.1392 68.6641 59.6443 69.6585 57.9829C70.1042 57.2384 70.0882 56.2896 69.6543 55.5382C66.3898 49.8865 61.82 46.2158 55.8823 44.9684C54.756 44.7318 53.5976 45.2344 53.0414 46.2315C52.2361 47.6756 51.1534 49.618 51.0371 49.8318C50.0091 51.7212 47.9991 53.2663 45.7021 52.6636C44.1548 52.2577 42.5135 50.9848 41.2185 50.0796C37.0005 47.1309 32.9124 42.3039 31.2659 37.2859C30.8786 36.1051 29.656 33.0249 30.9612 32.111C31.6024 31.6618 32.5429 31.581 33.1728 31.1165C34.5884 30.0717 35.6659 28.9658 35.0958 27.3113C33.8033 23.5625 27.9679 17.0696 27.2364 16.4447C25.9236 15.323 23.5731 15.3159 22.1869 16.3477C21.4467 16.8987 20.7245 17.4731 20.0217 18.0699C16.7865 20.818 12.0986 26.865 14.2565 32.9768C17.8078 42.6847 26.7173 51.3296 31.4538 55.3705Z" fill="#D36829"/>
<path d="M20.7768 18.4524C20.3528 18.2406 19.8334 18.4107 19.6176 18.8276C19.4026 19.2478 19.5721 19.7614 19.997 19.9765C20.0636 20.0099 26.7498 23.4501 30.1869 31.5044C30.3717 31.9385 30.8748 32.1415 31.3174 31.9597C31.7567 31.7762 31.9624 31.2743 31.7769 30.8407C28.0843 22.186 21.0736 18.6008 20.7768 18.4524ZM52.8868 48.8088C51.8153 48.4321 51.232 50.0423 52.3136 50.4196C52.4063 50.4513 61.6427 53.7347 65.4331 60.8102C65.9702 61.8091 67.4929 61.0061 66.959 60.0098C62.8559 52.3507 53.2923 48.9505 52.8868 48.8088ZM47.901 26.525C49.221 23.9141 48.9714 21.0484 47.6144 19.0277C45.8553 16.416 42.9807 16.6776 41.8235 19.091C41.4391 19.8915 41.3269 20.7569 41.2275 21.519C41.0836 22.6257 42.7905 22.8783 42.9405 21.7358C43.0265 21.0688 43.1167 20.3801 43.3831 19.8231C44.0631 18.4074 45.3278 18.7096 46.1762 19.9732C47.1818 21.4693 47.4189 23.7574 46.2992 25.8714C44.2601 25.2924 41.4114 25.5307 40.0582 27.002C37.4602 29.8427 42.2023 34.1348 46.983 27.9708C47.4669 28.226 47.9137 28.5478 48.3023 28.9297C48.6395 29.2632 49.1858 29.2632 49.5231 28.9297C49.8594 28.5962 49.8594 28.0542 49.5214 27.7224C49.0425 27.2488 48.4945 26.8486 47.901 26.525ZM42.0073 29.4316C41.2008 29.4349 40.7294 28.814 41.3371 28.1493C42.0981 27.3188 44.032 27.1476 45.2463 27.3705C44.5274 28.173 43.0439 29.408 42.0073 29.4316ZM60.1438 40.2808L63.5876 14.6186C63.6509 14.1517 63.3179 13.7231 62.8458 13.6598C62.372 13.6031 61.9386 13.9266 61.8762 14.3952L58.4324 40.0574C58.3692 40.5243 58.7022 40.9528 59.1743 41.0162C59.6463 41.0771 60.0813 40.7499 60.1438 40.2808ZM70.1364 28.6946C70.5607 28.6344 70.9316 28.9377 70.9694 29.3449L71.6801 37.0441C71.7858 38.1752 73.5034 38.0198 73.3999 36.8873L72.6892 29.1882C72.5586 27.7838 71.2592 26.814 69.9156 27.0003L65.5536 27.4872C64.4255 27.6143 64.6018 29.3029 65.7475 29.1848L70.1364 28.6946Z" fill="#3F3F5A"/>
<path d="M55.2877 23.3214L56.174 31.0657C56.2264 31.5171 56.6338 31.8681 57.1292 31.8178C57.603 31.7645 57.9436 31.3409 57.8904 30.8723L56.94 22.568C57.6427 22.2154 57.5585 21.1919 56.76 20.9949L56.5272 18.9609C56.4724 18.4923 56.0408 18.1538 55.5721 18.2088C55.0983 18.2622 54.7577 18.6857 54.8108 19.1543L55.0834 21.5359L51.2059 23.2865L50.9892 23.1498C51.0863 21.1375 51.3164 18.387 51.3282 16.6296C51.3363 15.4967 49.6098 15.4802 49.6016 16.6196C49.5899 18.3046 49.368 20.9496 49.2644 23.0681C49.1962 24.4492 50.6371 25.419 51.9225 24.8407L55.2877 23.3214ZM8.92452 26.0297L1.20135 26.4849C0.0407263 26.5541 0.191007 28.294 1.30421 28.1892L9.02737 27.7339C10.208 27.6636 10.0109 25.9075 8.92452 26.0297ZM8.9869 23.2015C10.0133 23.2015 10.1747 21.7328 9.17322 21.5139C7.58492 21.1654 6.09525 20.4233 4.86524 19.3678C4.00298 18.6305 2.87081 19.9148 3.73387 20.6585C5.75597 22.3926 8.38447 23.2015 8.9869 23.2015Z" fill="#3F3F5A"/>
<path d="M83.8984 19.6213C81.3554 10.8441 73.7701 4.98757 70.0134 4.61824C66.1267 0.729046 55.6261 0.168019 49.7988 1.53657C41.2216 3.54599 33.7168 9.22906 29.725 16.7365C29.1913 17.736 30.7279 18.5227 31.2526 17.5302C35.0159 10.4547 42.0984 5.09683 50.1967 3.19747C56.8588 1.6317 64.3711 2.96819 67.5331 4.88171C63.4487 6.01898 63.7609 10.3425 66.6968 11.4453C69.6626 12.5627 72.1617 9.4616 71.326 6.71437C74.696 8.09153 80.2696 13.3006 82.2393 20.0916C85.6831 31.9747 80.1763 44.4214 68.8466 50.3613C67.8407 50.8876 68.6491 52.4025 69.6559 51.8688C81.7124 45.5487 87.5699 32.2882 83.8984 19.6213ZM68.5794 9.83105C67.7666 10.204 66.6873 9.76983 66.3369 8.96058C66.0114 8.20351 66.3588 7.26467 67.1099 6.86779C67.703 6.55449 68.6428 6.33925 69.2091 6.30582C70.2311 7.69239 69.6076 9.35405 68.5794 9.83105Z" fill="#3F3F5A"/>
</g>
<defs>
<clipPath id="clip0_51_38097">
<rect width="85" height="68" fill="white"/>
</clipPath>
</defs>
</svg>
