<svg width="76" height="76" viewBox="0 0 76 76" fill="none" xmlns="http://www.w3.org/2000/svg">
<g clip-path="url(#clip0_51_38019)">
<path d="M63.2817 29.5085L62.6545 30.0656C68.6628 37.1083 63.9784 47.6003 63.9784 47.6003C55.0393 64.671 30.8056 63.1566 25.942 62.6685L25.696 62.8868C31.6481 68.1268 41.2103 71.2819 54.3764 68.5943C55.0857 68.4495 55.8206 68.5597 56.4483 68.9205L65.8066 74.3009C66.5849 74.701 67.4924 74.0266 67.3177 73.1691C66.8233 70.7412 66.2606 68.2948 65.788 65.8727C65.6523 65.1778 65.8957 64.4659 66.4167 63.9863C71.386 59.4138 76.63 54.056 76.6704 46.9202C76.7157 38.9443 70.3643 33.1944 63.2817 29.5085Z" fill="#92B29B"/>
<path d="M61.6903 27.7843C61.3834 27.4774 60.8861 27.4774 60.5792 27.7843C60.2723 28.0912 60.2723 28.5884 60.5792 28.8953C66.2412 34.5591 65.8256 43.354 62.1668 49.3853C55.8841 59.7423 39.9749 63.3686 28.1869 61.5102C26.7812 61.2923 25.3824 61.4948 24.1425 62.1071C20.738 63.763 16.9437 65.3344 12.1358 66.9933L13.4348 60.0784C13.6957 58.6712 13.2223 57.1995 12.2056 56.245C5.36207 49.6999 -1.01418 41.7952 3.58041 32.7994C6.39256 27.2932 10.846 22.9733 15.492 21.2423C15.8986 21.0904 16.1058 20.6377 15.9546 20.231C15.8027 19.8243 15.3477 19.6172 14.9441 19.7691C9.93825 21.6336 5.16718 26.2374 2.18085 32.0842C-2.91171 42.0561 4.28249 50.8416 11.1245 57.3852C11.7606 57.9821 12.0537 58.9044 11.8903 59.7899L10.5928 66.6971C10.3533 67.9321 11.5478 68.9506 12.7374 68.5325C17.5322 66.7938 21.3748 65.2009 24.8338 63.5174C25.7845 63.0494 26.8587 62.8928 27.9429 63.0632C40.2258 64.9876 56.8709 61.1419 63.5103 50.2017C67.5726 43.5019 67.844 33.938 61.6903 27.7843ZM20.4364 19.5159C23.5399 18.2733 27.3762 17.5241 32.7608 17.8094C33.7849 17.8926 33.8957 16.2933 32.8437 16.2411C27.2036 15.9493 23.129 16.7451 19.8533 18.058C19.4497 18.2192 19.254 18.6765 19.4152 19.0785C19.5773 19.4813 20.0345 19.6779 20.4364 19.5159Z" fill="#3F3F5A"/>
<path d="M17.2982 37.8372C17.2982 38.2715 17.6496 38.6229 18.0839 38.6229H35.4026C35.8369 38.6229 36.1884 38.2715 36.1884 37.8372C36.1884 37.4029 35.8369 37.0515 35.4026 37.0515H18.0839C17.6496 37.0515 17.2982 37.4029 17.2982 37.8372ZM47.0441 44.1153C47.0441 43.681 46.6927 43.3296 46.2584 43.3296H18.0839C17.6496 43.3296 17.2982 43.681 17.2982 44.1153C17.2982 44.5496 17.6496 44.901 18.0839 44.901H46.2584C46.6927 44.901 47.0441 44.5496 47.0441 44.1153ZM45.6538 49.6061H17.4793C17.045 49.6061 16.6936 49.9575 16.6936 50.3918C16.6936 50.8261 17.045 51.1775 17.4793 51.1775H45.6538C46.088 51.1775 46.4395 50.8261 46.4395 50.3918C46.4395 49.9575 46.088 49.6061 45.6538 49.6061ZM18.6003 21.9373C18.9479 21.6764 19.0185 21.1838 18.7576 20.837C15.345 16.281 15.9269 9.89982 21.0687 8.11053C21.7702 12.0014 25.7738 12.9867 27.2478 11.1352C27.8632 10.3618 27.9054 9.21237 27.3514 8.27473C26.4798 6.80326 24.4152 6.14285 22.6824 6.20916C23.1996 4.31911 25.6494 2.78354 28.3941 3.23051C30.8633 3.63718 32.8176 5.36667 34.0223 6.74474C34.3062 7.07161 34.8034 7.10076 35.131 6.81993C35.4579 6.5345 35.4909 6.03729 35.2054 5.71042C33.832 4.13899 31.5792 2.16243 28.6489 1.68056C25.0858 1.09091 21.4619 3.17022 21.0288 6.46851C14.705 8.21198 13.1736 16.0033 17.5008 21.7792C17.7636 22.1296 18.2572 22.1946 18.6003 21.9373ZM25.9986 9.07426C26.2127 9.43642 26.2211 9.90141 26.0178 10.1577C25.3803 10.9582 23.0196 10.2924 22.611 7.79133C23.7502 7.71555 25.4207 8.09793 25.9986 9.07426Z" fill="#3F3F5A"/>
<path d="M48.0014 37.4625C57.0776 37.4625 64.4354 30.1047 64.4354 21.0285C64.4354 11.9522 57.0776 4.59448 48.0014 4.59448C38.9251 4.59448 31.5674 11.9522 31.5674 21.0285C31.5674 30.1047 38.9251 37.4625 48.0014 37.4625Z" fill="#D36829"/>
<path d="M49.6176 30.4267C50.639 30.2506 50.3794 28.7025 49.3506 28.8767C47.2344 29.2404 44.8888 28.4348 43.3726 26.825C40.983 24.2896 40.6966 20.1525 42.9206 17.1217C45.7723 13.2322 51.362 12.9154 54.5406 16.2531C56.0606 17.8506 56.798 20.1817 56.4658 22.3332C56.3069 23.3232 55.0461 23.8117 54.2199 23.2524C52.9654 22.3976 53.2761 19.8165 53.8976 18.2542C54.0588 17.8522 53.8616 17.3949 53.4587 17.2337C53.0551 17.0787 52.5978 17.2706 52.4382 17.6742C52.3516 17.8915 52.2653 18.1413 52.1846 18.4131C49.5046 15.4242 44.5987 17.3372 44.5987 21.3081C44.5987 25.5722 50.1309 27.2916 52.5485 23.7616C54.2206 26.0916 57.6229 25.0438 58.018 22.5772C58.4239 19.95 57.5277 17.1125 55.6785 15.1697C51.7499 11.0436 45.0252 11.5956 41.6531 16.1917C39.0248 19.7751 39.2587 24.7494 42.2285 27.9022C44.1348 29.9247 46.9749 30.8818 49.6176 30.4267ZM48.9547 24.0918C47.4193 24.0918 46.1702 22.8427 46.1702 21.3081C46.1702 19.7719 47.4193 18.5228 48.9547 18.5228C50.4893 18.5228 51.7384 19.7719 51.7384 21.3081C51.7384 22.8427 50.4893 24.0918 48.9547 24.0918Z" fill="#3F3F5A"/>
</g>
<defs>
<clipPath id="clip0_51_38019">
<rect width="76" height="76" fill="white"/>
</clipPath>
</defs>
</svg>
