<svg width="104" height="103" viewBox="0 0 104 103" fill="none" xmlns="http://www.w3.org/2000/svg">
<path d="M45.0889 46.9196C45.0889 48.2694 43.9948 50.091 42.6433 50.091C41.2872 50.091 40.1857 48.2694 40.1857 46.9196C40.1857 45.5652 41.2835 44.4688 42.6396 44.4688C43.9911 44.4688 45.0889 45.5652 45.0889 46.9196ZM47.2996 54.7478C47.2996 56.5723 45.2087 57.868 42.635 57.868C40.0613 57.868 37.9705 56.5723 37.9705 54.7478C37.9705 52.9178 40.0613 51.2472 42.635 51.2472C45.2087 51.2472 47.2996 52.9178 47.2996 54.7478Z" fill="#92B29B"/>
<path d="M87.9945 39.8194L81.2312 36.3315L81.8574 35.1202C82.7667 33.3616 84.9313 32.672 86.6921 33.5801L87.0787 33.7795C88.8396 34.6876 89.53 36.8495 88.6207 38.6082L87.9945 39.8194Z" fill="#D36829"/>
<path d="M87.8349 40.1281L81.072 36.6404L64.7303 68.2489L71.4932 71.7366L87.8349 40.1281Z" fill="#F76D1C"/>
<path d="M43.6163 23.6752C43.5507 21.8862 44.0677 20.09 45.0317 18.6441C48.5021 25.1812 55.764 21.7488 54.6407 17.0724C53.8796 13.9514 49.7788 12.3807 45.8374 15.1667C45.8311 15.1721 45.8257 15.1757 45.8194 15.1793C45.4507 12.2681 46.9463 9.52861 49.187 8.13825C49.6186 7.86883 49.7508 7.30303 49.4828 6.87195C49.2139 6.43907 48.6474 6.30974 48.214 6.57558C44.9439 8.60752 43.154 12.6924 44.2404 16.6503C42.5733 18.5615 41.6803 21.1138 41.7766 23.7434C41.8209 24.9664 43.6618 24.8993 43.6163 23.6752ZM52.8503 17.5053C53.5292 20.3259 48.5819 22.4803 46.3445 17.1173C49.1175 14.5996 52.3475 15.4362 52.8503 17.5053ZM46.4902 28.4728H68.9759C71.2104 28.4728 73.0277 30.1809 73.0277 32.2807V44.254C73.0277 44.7623 73.4396 45.1736 73.9485 45.1736C74.4575 45.1736 74.8693 44.7623 74.8693 44.254V32.2807C74.8693 29.1661 72.2257 26.6335 68.9759 26.6335H46.4902C45.2711 26.6335 45.2724 28.4728 46.4902 28.4728ZM73.9485 75.1896C73.4396 75.1896 73.0277 75.6009 73.0277 76.1092V90.9349C73.0277 93.0238 71.2104 94.723 68.9759 94.723H20.2476C18.014 94.723 16.1967 93.0238 16.1967 90.9349V32.2807C16.1967 30.1809 18.014 28.4728 20.2476 28.4728H38.7741C39.9932 28.4728 39.9919 26.6335 38.7741 26.6335H20.2476C16.9988 26.6335 14.3551 29.1661 14.3551 32.2807V90.9349C14.3551 94.0386 16.9988 96.5623 20.2476 96.5623H68.9759C72.2257 96.5623 74.8693 94.0386 74.8693 90.9349V76.1092C74.8693 75.6009 74.4575 75.1896 73.9485 75.1896Z" fill="#3F3F5A"/>
<path d="M49.5512 71.0153H24.7959C24.287 71.0153 23.8751 71.4266 23.8751 71.935C23.8751 72.4433 24.287 72.8546 24.7959 72.8546H49.5512C50.0602 72.8546 50.472 72.4433 50.472 71.935C50.472 71.4266 50.0602 71.0153 49.5512 71.0153ZM49.5512 78.0689H24.7959C24.287 78.0689 23.8751 78.4802 23.8751 78.9885C23.8751 79.4969 24.287 79.9082 24.7959 79.9082H49.5512C50.0602 79.9082 50.472 79.4969 50.472 78.9885C50.472 78.4802 50.0602 78.0689 49.5512 78.0689ZM49.5512 85.1207H24.7959C24.287 85.1207 23.8751 85.532 23.8751 86.0403C23.8751 86.5487 24.287 86.96 24.7959 86.96H49.5512C50.0602 86.96 50.472 86.5487 50.472 86.0403C50.472 85.532 50.0602 85.1207 49.5512 85.1207ZM55.4401 71.15H54.5751C54.0661 71.15 53.6543 71.5613 53.6543 72.0697C53.6543 72.578 54.0661 72.9893 54.5751 72.9893H55.4401C55.9491 72.9893 56.3609 72.578 56.3609 72.0697C56.3609 71.5613 55.9491 71.15 55.4401 71.15ZM55.4401 78.0689H54.5751C54.0661 78.0689 53.6543 78.4802 53.6543 78.9885C53.6543 79.4969 54.0661 79.9082 54.5751 79.9082H55.4401C55.9491 79.9082 56.3609 79.4969 56.3609 78.9885C56.3609 78.4802 55.9491 78.0689 55.4401 78.0689ZM55.4401 84.986H54.5751C54.0661 84.986 53.6543 85.3973 53.6543 85.9056C53.6543 86.4139 54.0661 86.8253 54.5751 86.8253H55.4401C55.9491 86.8253 56.3609 86.4139 56.3609 85.9056C56.3609 85.3973 55.9491 84.986 55.4401 84.986ZM87.5015 32.9615L87.114 32.7621C84.9073 31.6269 82.1809 32.4945 81.0389 34.6984C78.7895 39.0492 64.4291 66.826 63.9125 67.8253C63.8733 67.9011 63.8321 67.9701 63.801 68.4126C63.6338 70.9021 63.632 73.4294 63.7956 75.9207C63.8426 76.6161 64.6138 77 65.1939 76.6445L71.6736 72.7019C72.2047 72.3807 72.205 72.3646 72.312 72.1577C73.4767 69.905 68.9163 78.7256 89.4393 39.0308C90.5795 36.8251 89.7109 34.1021 87.5015 32.9615ZM82.6755 35.5426C84.31 32.382 89.4423 35.0162 87.8028 38.1866L87.5986 38.5799L82.4722 35.936L82.6755 35.5426ZM65.5545 74.2718C65.5005 72.8384 65.5032 71.3961 65.5617 69.9627L69.3366 71.9709L65.5545 74.2718ZM71.0981 70.4962L65.9717 67.8522L81.4678 37.8794L86.5942 40.5234L71.0981 70.4962ZM42.6354 36.3437C34.7646 36.3437 28.3604 42.7399 28.3604 50.6C28.3604 58.46 34.7646 64.8562 42.6354 64.8562C50.5062 64.8562 56.9095 58.46 56.9095 50.6C56.9095 42.7399 50.5062 36.3437 42.6354 36.3437ZM42.6354 63.0169C35.7798 63.0169 30.202 57.447 30.202 50.6C30.202 43.7529 35.7798 38.183 42.6354 38.183C49.491 38.183 55.0679 43.7529 55.0679 50.6C55.0679 57.447 49.491 63.0169 42.6354 63.0169Z" fill="#3F3F5A"/>
<path d="M42.6345 31.4205C44.7694 31.4205 46.5 29.6921 46.5 27.5599C46.5 25.4277 44.7694 23.6992 42.6345 23.6992C40.4997 23.6992 38.769 25.4277 38.769 27.5599C38.769 29.6921 40.4997 31.4205 42.6345 31.4205Z" fill="#D36829"/>
</svg>
