<svg width="85" height="91" viewBox="0 0 85 91" fill="none" xmlns="http://www.w3.org/2000/svg">
<g clip-path="url(#clip0_41_749)">
<path d="M48.6818 2.15519C48.7753 2.34213 52.7277 1.51157 53.1465 1.44493C54.5022 1.2292 55.6405 1.27064 56.9896 1.5844C57.3238 1.66213 57.5891 1.90748 57.718 2.22122C60.8052 9.73946 78.5463 53.2116 84.3434 65.4341C85.2105 67.2623 84.8915 68.5105 83.227 69.6023C71.5271 77.2765 70.8206 77.8841 59.8998 83.0694C54.7581 85.5106 49.5507 87.8831 44.2101 89.7738C40.1799 91.2005 34.8562 91.1908 31.5692 88.0761C31.7327 87.6763 32.1819 87.5362 32.5834 87.4178C40.0523 85.2144 47.7497 83.1449 54.1274 78.6767C55.542 77.6856 56.8612 76.8629 58.5797 76.5915C70.0773 74.7753 69.9509 70.8808 72.1226 69.1101C73.2956 68.1538 75.0625 67.8757 75.81 66.5596C76.6137 65.1445 75.8973 63.659 75.4269 62.2956C73.6438 57.1275 75.8926 65.0313 66.4279 40.9715C65.8178 39.4205 64.8279 38.1544 64.2033 36.653C56.3622 17.8048 53.7545 9.45653 48.6818 2.15519ZM14.0783 39.7401L7.06461 42.6202C5.60409 43.2199 3.93392 42.5221 3.33417 41.0616C2.73443 39.6011 3.43223 37.9309 4.89275 37.3312L11.9065 34.4511C13.367 33.8513 15.0371 34.5491 15.6369 36.0097C16.2366 37.4702 15.5388 39.1404 14.0783 39.7401ZM20.6501 57.8964L13.6364 60.7765C12.1759 61.3762 10.5057 60.6784 9.90599 59.2179C9.30625 57.7574 10.004 56.0872 11.4646 55.4875L18.4783 52.6074C19.9388 52.0077 21.609 52.7055 22.2087 54.166C22.8084 55.6265 22.1106 57.2967 20.6501 57.8964ZM28.3457 76.1256L21.332 79.0057C19.8715 79.6055 18.2014 78.9077 17.6016 77.4472C17.0019 75.9866 17.6997 74.3165 19.1602 73.7167L26.1739 70.8366C27.6344 70.2369 29.3046 70.9347 29.9043 72.3952C30.5041 73.8557 29.8063 75.5259 28.3457 76.1256Z" fill="#92B29B"/>
<path d="M50.2274 30.3295L25.9595 40.2948C24.7307 40.7994 23.3255 40.2123 22.821 38.9835L18.1299 27.5596C17.6253 26.3308 18.2124 24.9257 19.4412 24.4211L43.7091 14.4558C44.9379 13.9512 46.343 14.5383 46.8476 15.7671L51.5387 27.191C52.0433 28.4198 51.4562 29.8249 50.2274 30.3295Z" fill="#E15F13"/>
<path d="M59.9579 33.5807L65.2836 36.6701C65.9063 37.0313 65.8742 38.0234 65.2241 38.5105L59.0265 43.1544C58.3032 43.6963 57.4153 43.1897 57.5165 42.2927L58.3884 34.5594C58.4799 33.7474 59.3307 33.2168 59.9579 33.5807Z" fill="#D36829"/>
<path d="M77.0464 63.5507C71.1736 51.0903 73.0372 55.6589 66.0076 38.2769C65.8149 37.8005 65.2703 37.5713 64.7948 37.7641C64.3183 37.9573 64.0892 38.5001 64.282 38.977C69.4858 51.8425 69.4649 52.0374 74.0806 61.6659C75.3131 64.2636 75.6937 64.907 75.6517 65.2701C75.6071 65.7042 74.8652 66.1829 74.3242 66.5325C73.4592 67.0895 72.6749 67.7321 71.9084 68.1927C71.8136 64.0802 67.8015 60.5808 64.0683 61.6037C62.2326 62.1324 60.8997 63.8008 60.8997 65.5587C60.862 68.5104 64.5619 71.4805 69.259 70.9713C67.4742 73.8067 62.9845 75.4305 59.5959 75.5478C62.0848 72.5275 61.0875 68.9523 58.6348 67.4876C56.7791 66.393 54.2488 66.7703 52.8822 68.3459C50.806 70.7095 51.612 74.9418 55.4135 76.6552C48.7284 81.0555 40.5689 83.6236 33.1296 86.6666C32.4528 86.9499 31.6603 86.6199 31.3721 85.9238L27.8489 77.3362L28.699 76.9871C30.632 76.1938 31.5594 73.9753 30.7656 72.0414C29.971 70.108 27.7498 69.1829 25.8204 69.9753L24.9639 70.3267L20.3279 59.0351L21.0034 58.7578C22.9364 57.9645 23.8638 55.7461 23.0701 53.8122C22.2754 51.8787 20.0533 50.9541 18.1248 51.746L17.4584 52.0197L13.0123 41.1846L14.4316 40.6017C16.3699 39.8067 17.2934 37.594 16.4973 35.6565C15.7074 33.7276 13.504 32.7925 11.553 33.5899L10.1274 34.1754L5.48586 22.868C5.2022 22.1874 5.53526 21.3957 6.22869 21.1096L48.4071 3.79133C49.0992 3.50435 49.879 3.83094 50.1692 4.5328L60.4851 29.6707C60.6815 30.1467 61.2279 30.374 61.6998 30.1776C62.1753 29.9821 62.4026 29.4384 62.2071 28.9625L51.8912 3.82361C51.2101 2.17441 49.3499 1.39101 47.6979 2.06928L5.51951 19.3875C3.8615 20.0726 3.08908 21.964 3.76654 23.5813L8.40535 34.8828L4.53937 36.4698C2.60639 37.2631 1.67899 39.4816 2.47273 41.4155C3.26656 43.3484 5.48395 44.2744 7.41794 43.4817L11.2903 41.8919L15.7363 52.727L11.1112 54.6264C9.17818 55.4201 8.25078 57.6386 9.04453 59.5716C9.84072 61.5109 12.0629 62.4294 13.9897 61.6378L18.6058 59.7425L23.2419 71.034L18.8067 72.8556C16.8738 73.6494 15.9473 75.8674 16.7401 77.8008C17.5363 79.7401 19.7585 80.6587 21.6853 79.867L26.1268 78.0432L29.65 86.632C30.3389 88.3012 32.2394 89.0591 33.8424 88.3868C40.7857 85.5467 51.731 81.9296 57.7084 77.3181C62.3131 78.0673 69.9422 75.4109 71.5675 70.4271C73.1165 69.8286 74.051 68.9228 75.3335 68.0968C77.3826 66.7748 78.0564 65.7471 77.0464 63.5507ZM6.71058 41.7592C5.7259 42.1597 4.59938 41.691 4.19478 40.7086C3.792 39.7248 4.26297 38.596 5.24674 38.1928L12.2604 35.3124C14.6624 34.3285 16.0406 37.9284 13.7242 38.8788C13.5332 38.9572 6.24667 41.9497 6.71058 41.7592ZM13.2824 59.9157C12.2941 60.3185 11.1703 59.8466 10.7666 58.8647C10.3638 57.8809 10.8348 56.7526 11.8185 56.3484C19.0041 53.4128 18.9134 53.4343 18.8322 53.4685C19.8222 53.0638 20.9454 53.5418 21.348 54.5191C21.7508 55.5028 21.2798 56.6316 20.296 57.0349L13.2824 59.9157ZM20.978 78.145C19.9905 78.5469 18.8658 78.0763 18.4622 77.0939C18.0594 76.1102 18.5313 74.9818 19.5141 74.5777C19.7358 74.4867 26.9351 71.5305 26.5278 71.6978C27.5178 71.2931 28.641 71.771 29.0436 72.7484C29.4464 73.7321 28.9754 74.8609 27.9916 75.2641L20.978 78.145ZM59.1295 72.431C58.934 73.4316 58.3275 74.3522 57.2247 75.3101C52.4047 74.1104 52.79 68.7201 56.2873 68.7201C58.2839 68.7201 59.4562 70.7395 59.1295 72.431ZM70.0136 68.956C65.9339 69.9126 62.7376 67.4665 62.7618 65.571C62.7618 64.6436 63.5619 63.6871 64.572 63.3962C67.1346 62.6953 70.4317 65.5073 70.0136 68.956Z" fill="#3F3F5A"/>
<path d="M42.7992 20.9587C42.5946 20.4873 42.0463 20.2686 41.5745 20.4745L25.0895 27.6182C24.6176 27.8228 24.4012 28.3711 24.6049 28.8425C24.8106 29.3157 25.36 29.5312 25.8296 29.3266L42.3146 22.1829C42.7864 21.9784 43.0028 21.4301 42.7992 20.9587ZM57.893 43.8568L59.1614 43.1308C59.2941 43.0548 59.2741 42.8635 59.1232 42.7762L57.8367 42.0297C57.6848 41.942 57.5075 42.0211 57.5103 42.1756L57.5293 43.6481C57.5312 43.8186 57.7457 43.9418 57.893 43.8568ZM61.0771 50.0681L32.8615 63.8713C32.3996 64.0972 32.2087 64.655 32.4341 65.1169C32.6597 65.5769 33.2151 65.7702 33.6798 65.5442L61.8954 51.741C62.3573 51.5151 62.5482 50.9573 62.3227 50.4954C62.0963 50.0335 61.5399 49.843 61.0771 50.0681ZM33.3288 53.8472L50.6002 45.3979C51.0621 45.172 51.253 44.6141 51.0276 44.1523C50.8012 43.6908 50.2447 43.4999 49.7819 43.7249L32.5105 52.1743C32.0486 52.4002 31.8577 52.958 32.0832 53.4199C32.3087 53.8798 32.8641 54.0732 33.3288 53.8472Z" fill="#3F3F5A"/>
<path d="M81.9582 10.7727L65.47 38.2433C64.9938 39.0367 63.9646 39.2938 63.1713 38.8176L59.0769 36.3601C58.2835 35.8839 58.0264 34.8547 58.5026 34.0614L74.9908 6.59077C75.467 5.79742 76.4962 5.54031 77.2895 6.01648L81.3839 8.47403C82.1773 8.95021 82.4344 9.97936 81.9582 10.7727Z" fill="#F86E1C"/>
<path d="M78.3305 14.792L73.2303 11.8474C72.5175 11.4359 72.2732 10.5244 72.6848 9.81156L74.8543 6.05378C75.2659 5.34095 76.1774 5.09672 76.8902 5.50827L81.9904 8.45286C82.7032 8.86441 82.9474 9.7759 82.5359 10.4887L80.3663 14.2465C79.9548 14.9593 79.0433 15.2036 78.3305 14.792Z" fill="#92B29B"/>
</g>
<defs>
<clipPath id="clip0_41_749">
<rect width="84" height="91" fill="white" transform="translate(0.5)"/>
</clipPath>
</defs>
</svg>
