<svg width="88" height="83" viewBox="0 0 88 83" fill="none" xmlns="http://www.w3.org/2000/svg">
<path d="M29.7211 76.3774C17.3094 77.504 0.984619 71.8621 0.984619 59.4642C0.984619 47.4489 17.6145 36.6367 35.0646 41.4952C14.5558 47.0212 9.11212 68.2855 29.7211 76.3774ZM35.1992 29.1319C32.8542 32.0115 29.8364 34.008 26.5302 34.008C19.1299 34.008 13.0943 24.0444 13.0943 16.6725C13.0943 5.98596 24.9057 -0.166269 33.5462 5.28824C31.0857 7.84157 29.5865 11.3163 29.5865 15.1559C29.5865 19.7634 31.797 25.3306 35.1992 29.1319Z" fill="#D36829"/>
<path d="M57.9986 75.4042C49.6393 78.8105 38.5633 78.8839 30.0669 75.5747C30.0289 75.5585 29.9934 75.5414 29.9529 75.5302C9.4241 67.4387 16.1686 45.5565 37.519 41.8494C38.0687 43.4483 39.3229 44.4598 40.9237 45.0683L36.8628 62.3821C36.6802 63.1568 36.9184 63.9871 37.4845 64.5481L44.395 71.404C44.7703 71.7768 45.3822 71.7399 45.7124 71.3362L51.636 64.1174C52.1328 63.513 52.206 63.0531 51.9768 62.3092C49.972 55.6476 52.2526 63.3873 47.0647 45.2582C48.7582 44.6959 50.0266 43.496 51.0331 42.0218C57.1391 43.0741 62.3695 45.7995 65.7917 49.7595C66.1128 50.1309 66.6757 50.1709 67.0474 49.8516C67.4196 49.5303 67.4613 48.9675 67.1396 48.5958C63.3387 44.1995 57.523 41.2032 50.7629 40.1593L50.7585 40.1595C50.3725 40.1031 50.0226 40.3234 49.8683 40.5749L49.8655 40.5779C49.1499 41.759 48.2925 42.6484 47.3194 43.2233C44.8939 44.6566 39.4667 43.8545 39.0498 40.7585C38.9833 40.263 38.587 39.8716 37.6854 40.0047C36.7635 40.1516 35.8664 40.3438 34.9834 40.5594C17.0071 35.7467 0.09375 46.9318 0.09375 59.464C0.09375 72.2815 16.3997 78.3882 29.5675 77.2783C38.344 80.6606 49.8221 80.6577 58.6717 77.0509C59.1265 76.865 59.3456 76.3457 59.1595 75.8923C58.9734 75.4355 58.4534 75.2184 57.9986 75.4042ZM45.4281 46.0146L46.258 48.9285C45.9476 49.0802 46.3697 48.7744 40.5233 54.5743L42.5054 46.1223C43.3897 46.1004 44.4452 46.0405 45.4281 46.0146ZM38.5967 62.7886L39.7529 57.8585L46.7977 50.8234L48.5657 57.0315L40.1054 64.5864C40.095 64.5957 40.0913 64.6088 40.0814 64.6185L38.7393 63.2871C38.6098 63.1568 38.555 62.9675 38.5967 62.7886ZM50.256 62.9935L44.955 69.4534L41.3424 65.8695L49.1079 58.9351C50.4456 63.4834 49.9011 61.5895 50.2742 62.8303C50.2916 62.8876 50.3151 62.9449 50.256 62.9935ZM1.87464 59.464C1.87464 48.973 15.5303 39.0405 31.4959 41.6242C14.3072 47.9421 9.45065 66.5617 25.9131 75.6052C12.1718 75.4146 1.87464 68.5482 1.87464 59.464ZM35.2411 30.4249C37.7231 32.8955 40.7162 34.5089 43.8924 34.5089C50.7681 34.5089 56.3386 27.3317 58.2873 20.2414C58.4178 19.7672 58.1386 19.2774 57.6647 19.1471C57.1882 19.022 56.6995 19.2965 56.5708 19.7689C54.8438 26.0533 49.8133 32.7302 43.8924 32.7302C36.5127 32.7302 30.4766 22.4636 30.4766 15.1555C30.4766 7.73645 36.5349 1.77908 43.8715 1.77908C50.8655 1.77908 56.723 7.24186 57.2064 14.2141C57.2412 14.7039 57.6699 15.06 58.1569 15.0409C58.6473 15.0061 59.0178 14.5823 58.9839 14.0925C58.1032 1.40807 42.7262 -4.67895 33.4071 4.2065C23.9598 -1.10625 12.2034 5.80287 12.2034 16.6719C12.2034 28.2803 24.6423 42.1598 35.2411 30.4249ZM32.1506 5.51357C26.3928 12.4609 28.4761 22.4418 34.028 29.1347C24.5037 39.8787 13.9843 26.3319 13.9843 16.6719C13.9843 7.26228 24.0034 1.33235 32.1506 5.51357ZM81.9919 49.2471L78.6551 48.9197C78.682 48.9056 78.713 48.9117 78.7388 48.8945C89.8304 41.5708 89.7199 24.2791 80.8649 18.7615C80.7145 15.0461 79.3293 11.6816 76.9545 9.43566C73.4779 6.15278 67.9396 5.7637 64.6056 8.57239C64.2291 8.88852 64.1822 9.44956 64.4987 9.82475C64.8161 10.1999 65.377 10.2468 65.7535 9.9307C68.3709 7.72648 72.9388 8.08951 75.7301 10.728C77.5649 12.4615 78.711 15.0044 79.0162 17.8669C73.1548 15.8351 67.1311 20.769 70.0492 26.3173C72.5703 31.1055 80.0307 29.8832 80.8162 20.9049C87.7423 26.538 87.2659 40.8123 78.0303 47.21L78.8162 45.4831C79.3051 44.4105 77.6765 43.6777 77.1953 44.7466L75.7266 47.9739C75.0555 49.4346 75.8392 50.4378 77.4666 50.5915L81.818 51.0188C83.0386 51.0906 83.126 49.3598 81.9919 49.2471ZM71.6257 25.4888C69.3483 21.1653 74.6195 17.7413 79.0936 19.8176C78.8898 27.6678 73.4334 28.9253 71.6257 25.4888Z" fill="#3F3F5A"/>
<path d="M81.8908 67.617C83.797 59.5528 78.7967 51.4721 70.7223 49.5683C62.648 47.6645 54.5572 52.6585 52.651 60.7228C50.7448 68.7871 55.7451 76.8678 63.8195 78.7716C71.8938 80.6754 79.9846 75.6813 81.8908 67.617Z" fill="#92B29B"/>
<path d="M72.6153 63.2802H69.0648V59.7333C69.0648 59.2418 68.6665 58.844 68.1744 58.844C67.6822 58.844 67.2839 59.2418 67.2839 59.7333V63.2802H63.7335C63.2413 63.2802 62.843 63.678 62.843 64.1696C62.843 64.6611 63.2413 65.0589 63.7335 65.0589H67.2839V68.6058C67.2839 69.0974 67.6822 69.4951 68.1744 69.4951C68.6665 69.4951 69.0648 69.0974 69.0648 68.6058V65.0589H72.6153C73.1075 65.0589 73.5057 64.6611 73.5057 64.1696C73.5057 63.678 73.1075 63.2802 72.6153 63.2802Z" fill="#3F3F5A"/>
</svg>
