<svg width="99" height="98" viewBox="0 0 99 98" fill="none" xmlns="http://www.w3.org/2000/svg">
<path d="M64.9139 17.829C69.4017 17.829 73.9903 17.804 77.7947 20.5726C83.5538 24.7637 82.6121 28.1081 82.6664 38.0132C82.9035 81.258 82.8385 69.0903 82.8493 71.3727C82.6206 74.9649 80.1654 77.4829 77.0185 78.9097C75.3031 79.6874 69.5412 82.401 68.4782 79.6387C68.0816 78.608 68.3581 77.4599 68.4879 76.3631C68.8009 73.7187 68.2234 71.0625 67.9279 68.4161C66.1462 52.4566 74.9462 30.9864 58.4231 27.6421C55.118 26.9732 51.7452 26.6403 48.3731 26.6472C46.8448 26.6503 45.1741 27.0303 43.6807 26.945C42.418 26.8728 40.9824 26.0131 39.8929 25.4049C37.4315 24.031 35.2707 22.0144 33.9289 19.5179C32.7968 17.4117 34.5024 17.8839 36.2186 17.8691C42.3465 17.8163 34.607 17.829 64.9139 17.829Z" fill="#F86E1C"/>
<path d="M36.1912 20.9223C36.8425 20.6117 38.6865 21.0399 39.4208 21.0404C39.6018 21.0405 60.2179 21.0466 60.4173 21.0462C64.1204 21.0379 67.2222 21.5661 70.2498 23.8614C73.6267 26.4214 74.6656 30.0723 74.688 34.1724C74.7139 38.921 74.8855 70.192 74.8996 72.7797C74.7815 74.6358 73.8343 76.3392 72.5233 77.625C72.1993 77.9427 68.1249 80.4873 68.1257 80.2717C68.171 68.0309 68.2163 55.7901 68.2616 43.5493C68.2929 35.1001 67.1618 32.4398 59.5697 28.9916C56.7633 27.717 53.7876 27.4178 50.7496 27.2629C49.5529 27.2019 48.6409 26.7645 47.492 26.6054C45.8931 26.3839 44.1632 26.9703 42.6049 27.251C40.5991 27.6123 38.2732 27.6113 36.8335 26.1687C35.6896 25.0226 34.5925 21.6847 36.1912 20.9223Z" fill="#92B29B"/>
<path d="M23.2795 69.9418V48.7131C23.2795 43.683 28.5579 40.3989 33.0704 42.6215L54.299 53.0774C59.3189 55.5499 59.3615 62.6922 54.3715 65.2245L33.1429 75.9972C28.6257 78.2895 23.2795 75.0074 23.2795 69.9418Z" fill="#D36829"/>
<path d="M30.3644 45.7185C29.8974 45.7185 29.5195 46.0968 29.5195 46.5633V69.9124C29.5195 70.379 29.8974 70.7572 30.3644 70.7572C30.8313 70.7572 31.2092 70.379 31.2092 69.9124V46.5633C31.2092 46.0968 30.8313 45.7185 30.3644 45.7185ZM40.9528 51.8068C40.4858 51.8068 40.1079 52.1851 40.1079 52.6516V64.9321C40.1079 65.3987 40.4858 65.777 40.9528 65.777C41.4197 65.777 41.7976 65.3987 41.7976 64.9321V52.6516C41.7976 52.1851 41.4197 51.8068 40.9528 51.8068Z" fill="#3F3F5A"/>
<path d="M90.4428 33.515C90.6531 29.1638 90.8907 24.2314 88.7968 20.7485C85.0743 14.5608 77.4865 14.5612 71.3929 14.5773L36.3251 14.5777C35.8582 14.5777 35.4803 14.956 35.4803 15.4226C35.4803 15.8891 35.8582 16.2674 36.3251 16.2674L71.3945 16.267C77.0856 16.2637 84.1206 16.2521 87.3481 21.6197C89.1788 24.6624 88.9536 29.3222 88.7547 33.4337C88.5823 37.0362 88.5844 64.4457 88.7151 68.065C88.9778 75.3137 88.5599 82.6983 81.4821 84.7397C79.8379 85.2145 78.1276 85.325 76.5039 85.087C76.3075 84.9895 74.4405 84.9245 72.3219 83.5343C68.8331 81.2469 68.9291 77.3543 68.5837 73.1798C68.3254 70.048 68.0581 66.8098 68.4962 63.7869V46.8953C68.4962 39.6974 71.0093 31.9689 62.4026 28.17C57.1735 25.8619 52.1605 26.8344 39.004 26.6145C37.7433 26.5938 37.6212 26.5221 37.3787 25.6537C36.9744 24.2028 36.8631 22.6658 36.3614 21.1095C34.4853 15.2956 30.3253 13.1982 30.1506 13.0411C25.5197 10.4336 19.6563 10.4608 15.2152 13.1108C11.3045 15.4452 9.10253 19.3373 8.66939 24.6794C8.3402 28.7414 8.37155 34.5207 10.3524 39.1602C8.83027 42.5647 8.32948 47.0149 8.43838 49.867C8.77621 58.791 7.47338 73.5845 11.3664 80.2792C13.2128 83.4563 16.8479 86.8179 21.3567 86.6888H75.8431C77.8499 87.0489 79.9582 86.9375 81.9508 86.3633C89.8688 84.0795 90.7041 76.2387 90.4032 68.004C90.2757 64.4692 90.2706 37.0787 90.4428 33.515ZM21.3344 84.9995C18.1737 85.059 14.8406 82.8957 12.8267 79.4302C9.21231 73.2102 10.4623 58.5927 10.1264 49.8027C10.0497 47.7818 10.345 44.1207 11.3936 41.0689C15.0126 46.2958 21.1796 44.8962 22.3549 40.984C23.062 38.6264 21.5885 35.8164 19.1365 34.8474C15.9576 33.5912 13.2998 34.4736 11.4225 37.2185C10.0596 33.1334 10.0703 28.3144 10.3541 24.8155C10.7402 20.0497 12.6666 16.5999 16.0814 14.5616C20.0102 12.2161 25.2079 12.1963 29.3198 14.5126C29.4888 14.6654 33.0011 16.1966 34.7526 21.6284C35.1921 22.9882 35.3409 24.6368 35.7517 26.1079C36.3086 28.1024 37.4901 28.2794 38.9759 28.3041C52.0256 28.5195 56.9179 27.5956 61.7203 29.7161C69.3059 33.0629 66.8066 40.3131 66.8066 46.8953C66.8053 47.0677 66.779 71.8558 66.8998 73.3192C67.2941 78.0922 67.2418 82.2214 71.4746 84.9991L21.3344 84.9995ZM12.2088 39.1479C13.6277 36.4471 15.6216 35.2764 18.5161 36.4191C20.1562 37.0671 21.1941 38.9734 20.7362 40.498C19.8659 43.3994 14.7628 44.1362 12.2088 39.1479Z" fill="#3F3F5A"/>
</svg>
