<svg width="95" height="94" viewBox="0 0 95 94" fill="none" xmlns="http://www.w3.org/2000/svg">
<path d="M65.4759 13.2595L65.6533 63.025C66.5588 71.3875 60.3666 70.3273 60.3666 70.3273L18.6033 70.3707C19.4386 72.9048 22.6615 76.3963 25.4969 76.3963H64.7625C68.3067 76.3963 71.2181 73.5112 71.2181 69.9734V21.1737C71.2181 15.3491 68.7924 13.5355 65.4759 13.2595Z" fill="#92B29B"/>
<path d="M73.1003 62.9718L66.3588 69.1164C66.3588 69.1164 68.167 61.7428 68.3075 61.0581C68.3778 60.6894 68.4304 60.3032 68.5181 59.9345C68.5628 59.6221 68.5709 59.1569 68.9395 59.2673C69.2145 59.3591 69.3025 59.8337 72.9423 62.8313C72.9949 62.8839 73.0477 62.9191 73.1003 62.9718Z" fill="#D36829"/>
<path d="M45.3518 60.0797C45.3625 60.0748 45.3887 60.0758 45.3994 60.0709C50.2509 59.6568 56.3696 58.486 61.291 57.8854C61.8659 57.8174 62.3835 58.162 62.5846 58.6893C63.5265 61.2956 65.625 67.1023 66.3528 69.1141C66.3528 69.1141 68.1745 61.7419 68.2997 61.0534C68.3037 61.034 68.5939 59.4648 68.6006 59.4471C68.6637 59.3024 68.7617 59.2063 68.9433 59.2655C69.0939 59.3131 69.1939 59.4481 69.2842 59.5617C70.3839 60.7153 81.7857 70.4476 82.5251 70.8522C83.0799 71.1797 83.1609 71.0494 83.3078 70.419C83.4068 69.8869 87.5422 28.0068 87.5589 27.8325C87.6432 27.056 86.8879 26.6242 86.0837 27.2529C84.8575 28.1762 84.108 29.0358 72.5556 38.2372C49.1327 56.9225 56.089 50.8305 45.4065 60.0792" fill="#D36829"/>
<path d="M68.6006 59.4473L87.2364 27.6852C87.4283 27.346 86.9571 27.027 86.7134 27.3312L62.0924 57.9551" fill="#D36829"/>
<path d="M54.6384 26.7551C55.1195 26.7551 55.5088 26.3659 55.5088 25.8848C55.5088 25.4037 55.1195 25.0144 54.6384 25.0144H23.5431C23.062 25.0144 22.6727 25.4037 22.6727 25.8848C22.6727 26.3659 23.062 26.7551 23.5431 26.7551H54.6384ZM46.7201 36.3598H23.8312C23.3502 36.3598 22.9609 36.7491 22.9609 37.2302C22.9609 37.7113 23.3502 38.1006 23.8312 38.1006H46.7201C47.2012 38.1006 47.5905 37.7113 47.5905 37.2302C47.5905 36.7491 47.2012 36.3598 46.7201 36.3598ZM42.3258 47.7596H23.8312C23.3502 47.7596 22.9609 48.1489 22.9609 48.63C22.9609 49.1111 23.3502 49.5004 23.8312 49.5004H42.3258C42.8068 49.5004 43.1961 49.1111 43.1961 48.63C43.1961 48.1489 42.8068 47.7596 42.3258 47.7596ZM45.9024 47.7443C44.7299 48.0468 45.2457 49.9607 46.6181 49.3287C47.0465 49.1587 47.27 48.6793 47.1187 48.239C46.9671 47.7974 46.4713 47.4941 45.9024 47.7443Z" fill="#3F3F5A"/>
<path d="M85.5475 26.5596C82.7276 28.7748 87.1876 25.3855 72.0219 37.5611L66.7301 41.7389V17.003C66.7301 12.9992 63.4749 9.7266 59.4538 9.7266L58.4176 9.72565C58.5248 9.52569 58.556 9.28547 58.482 9.05194C58.2186 8.22067 57.8905 7.1837 57.2861 6.29123C54.9738 2.86541 50.4515 4.17726 49.8021 8.66945C49.752 9.01741 49.7453 9.36781 49.7498 9.71757L43.7438 9.71194C43.8446 9.51496 43.8718 9.27984 43.7996 9.05194C43.5362 8.22067 43.2081 7.1837 42.6037 6.29123C40.0744 2.54383 35.0116 4.52172 35.0675 9.70387L29.1125 9.69834C28.8507 8.86941 28.5257 7.84158 27.9196 6.94741C25.4959 3.36506 20.68 4.98246 20.4076 9.90924C16.9737 10.7199 14.8212 13.6941 14.8212 16.9856C14.8548 48.5873 14.7363 42.9135 14.9952 56.3611C15.0996 58.9374 15.1866 61.6008 14.8386 64.1422C13.15 62.7322 11.3048 62.1751 9.6511 62.6277C6.4855 63.491 5.27989 68.1694 8.34555 70.2C10.6568 71.7344 14.2774 71.2155 15.7437 67.6062C17.6057 69.6952 19.0051 70.9517 21.8015 71.2444H59.4538C61.7863 71.2444 63.8404 70.1478 65.1808 68.4419L65.5289 69.4167C65.7633 70.0028 66.4173 70.1645 66.8902 69.7927C67.0662 69.6542 73.2954 63.9961 73.118 64.1329C73.3823 64.3564 76.6479 67.1178 76.4433 66.9449C81.6571 71.3432 82.0294 71.8885 83.0582 71.8885C84.3195 71.7739 84.2089 70.13 84.4682 67.8848C84.6594 65.8457 85.6283 56.1435 86.0001 52.3052L88.4196 27.9348C88.5816 26.3798 86.9923 25.4649 85.5475 26.5596ZM13.4286 68.1633C12.5059 69.347 10.6085 69.6081 9.30293 68.7552C6.70302 66.9784 9.56067 61.2666 14.4381 66.1441C14.2293 66.823 13.9159 67.5541 13.4286 68.1633ZM82.1354 31.6368L61.7062 57.0474C60.777 56.9228 54.0328 58.1443 48.0693 58.92C54.0897 53.5994 67.5649 43.5389 82.1354 31.6368ZM55.8437 7.2653C56.481 8.20771 56.6887 9.33177 56.9033 9.72427L51.4855 9.71917C51.4473 6.51254 54.1745 4.79038 55.8437 7.2653ZM39.5455 6.10934C41.409 6.37401 41.9479 9.20447 42.2136 9.71056L36.8032 9.70557C36.7788 7.18686 38.2887 5.92979 39.5455 6.10934ZM26.4781 7.92318C26.8182 8.42434 27.0461 9.02644 27.2702 9.69664L22.1544 9.69186C22.492 6.89923 24.9472 5.65775 26.4781 7.92318ZM59.4538 69.5037H21.9407C18.8672 69.1825 17.8305 67.135 16.353 65.6566C17.0038 63.0496 16.8147 58.5285 16.7359 56.3088C16.4696 42.4751 16.5937 46.8585 16.5619 16.9856C16.5619 14.6194 18.0158 12.4292 20.5178 11.6867C21.0135 14.1824 22.7774 16.4527 25.1632 17.363C26.2499 17.7795 26.8509 16.1421 25.7837 15.7378C23.9695 15.0448 22.621 13.3272 22.2283 11.4327L35.3046 11.4449C35.9065 13.7724 37.5949 15.8457 39.8456 16.7034C40.9384 17.1223 41.5261 15.4798 40.4661 15.0782C38.8711 14.4699 37.6489 13.064 37.1063 11.4465L49.9913 11.4585C50.5959 13.7803 52.2812 15.8474 54.528 16.7034C54.9752 16.8748 55.4798 16.6519 55.6516 16.2002C55.8225 15.7514 55.5972 15.2482 55.1485 15.0782C53.558 14.4716 52.3379 13.072 51.7931 11.4602L59.4538 11.4673C62.5174 11.4673 64.9893 13.9567 64.9893 17.003V43.0967C48.3894 56.2999 52.8667 52.3927 44.9881 59.2855C44.5878 59.4596 44.3267 59.9296 44.4485 60.3474C44.5878 60.8 44.9881 61.0611 45.4407 60.9567C45.6164 60.8981 61.2119 58.7673 61.386 58.7459C61.5774 58.7285 61.7167 58.8678 61.7689 58.9897L64.4323 66.3704C63.5271 68.233 61.6297 69.5037 59.4538 69.5037ZM63.4052 58.3803C63.3504 58.2376 63.2595 58.1198 63.1782 57.9951L82.6654 33.7555C78.9581 40.0782 71.5436 52.7237 67.8366 59.0466C67.6835 59.6917 67.132 62.5165 66.1904 66.1092C66.1904 66.1092 63.2208 57.8686 63.4052 58.3803ZM67.8832 66.5479C68.8745 62.4897 69.1103 61.5338 69.2422 60.7693C70.3722 61.8167 70.4358 61.8542 71.7832 62.9945L67.8832 66.5479ZM82.5359 69.817C82.2727 69.6195 72.4523 61.3928 69.9035 58.9461L86.3863 30.8536C81.1436 83.9106 82.9149 66.0322 82.5359 69.817Z" fill="#3F3F5A"/>
<path d="M67.8623 70.3264C67.388 70.4046 67.0676 70.8517 67.1458 71.326C67.5267 73.6373 67.9324 76.1701 66.6298 78.1393C65.7034 73.9429 60.792 74.8748 60.6894 78.1257C60.6228 80.1222 62.5805 81.8283 65.0319 81.2944C64.834 83.5342 63.4969 85.0689 61.5717 86.1393C59.9907 87.0198 58.1599 87.4856 56.3885 87.9344C55.9227 88.0517 55.6406 88.526 55.7587 88.9918C55.8796 89.467 56.3628 89.7383 56.8169 89.6208C58.6962 89.1448 60.6392 88.6518 62.4191 87.659C65.6161 85.8795 66.7816 83.4635 66.81 80.4649C68.0263 79.5435 68.8823 78.0186 69.1525 76.2371C69.4245 74.4488 69.1262 72.64 68.8627 71.0438C68.7854 70.5695 68.3476 70.2414 67.8623 70.3264ZM62.4284 78.1818C62.4455 77.6545 62.8777 77.0769 63.5733 77.0769C64.7002 77.0769 64.9888 78.3722 65.0523 79.4755C63.601 80.0449 62.3963 79.178 62.4284 78.1818Z" fill="#3F3F5A"/>
</svg>
