<svg width="78" height="81" viewBox="0 0 78 81" fill="none" xmlns="http://www.w3.org/2000/svg">
<g clip-path="url(#clip0_41_796)">
<path d="M19.0212 75.5253C25.8833 76.2971 33.8117 77.2078 41.4001 77.9642C33.4563 78.9057 25.9142 79.7548 20.4585 80.4956C19.9022 80.5574 19.4076 80.1869 19.3458 79.6312L19.0212 75.5253ZM69.3892 20.0802C59.6216 18.1508 50.3949 16.9005 41.0446 15.8663C49.7149 14.8784 58.3851 14.1221 67.6273 13.8288C68.2146 13.8133 68.7091 14.2301 68.7864 14.8012C68.9409 16.1287 69.1418 17.9346 69.3892 20.0802ZM71.6919 73.7965C69.3582 74.2287 66.7618 74.6455 63.9953 75.0622C65.309 64.7049 68.5391 39.1897 70.0692 26.3935C71.5838 40.7641 73.7474 62.0499 74.5511 70.0148C74.7365 71.8362 73.4847 73.4724 71.6919 73.7965Z" fill="#92B29B"/>
<path d="M10.88 14.0341C8.66174 17.9166 5.51519 19.8498 3.65732 18.5449C1.75206 17.2067 2.46986 14.109 4.59844 10.0296C9.76158 0.134539 15.7501 5.51022 10.88 14.0341Z" fill="#D36829"/>
<path d="M75.3606 69.9346C74.5591 61.983 72.4027 40.77 70.8879 26.3985L71.4495 21.4337C71.5466 20.5411 70.9744 19.7322 70.1355 19.4441L69.5929 14.6941C69.461 13.7118 68.6666 13.0215 67.6012 13.0167C59.3634 13.2794 50.9209 13.9258 41.0422 15.0493C38.0892 14.72 35.1165 14.4071 32.1116 14.1053C31.8544 12.3307 31.1192 10.5993 29.6361 9.65565C27.148 8.07362 24.3286 9.29706 21.9609 10.5031C21.7324 10.619 21.5946 10.8307 21.5459 11.063C19.5661 9.74633 17.6568 8.44753 15.7499 7.40223C15.7256 7.38894 15.6988 7.38904 15.6738 7.37843C15.5699 5.87344 15.0319 4.42657 13.8655 3.15247C11.7324 0.819711 8.63881 1.57984 6.66778 3.27308C4.76905 4.90125 3.19445 6.95155 2.11559 9.20496C1.92174 9.60963 2.09334 10.0952 2.49851 10.2888C2.90447 10.4824 3.38909 10.311 3.58373 9.90638C5.38681 6.14153 9.85592 1.17193 12.6643 4.24903C16.1718 8.07984 12.2814 14.6608 8.81041 18.1488C5.52204 21.4545 2.1745 20.7864 1.58092 17.787C1.20356 15.8843 2.05759 13.9498 2.81152 12.2423C2.99266 11.8313 2.80676 11.3521 2.39523 11.1696C1.98768 10.9934 1.50466 11.1775 1.32273 11.5853C0.513978 13.4182 -0.491794 15.697 -0.0159193 18.1012C0.617235 21.2995 3.73795 23.1809 7.57891 21.0933C7.62191 21.1589 7.66422 21.2254 7.72757 21.2782C9.36175 22.6398 11.1715 23.7649 13.1139 24.6282C12.9975 26.2388 12.9863 27.7023 13.6249 29.2032C13.3954 30.0769 14.2955 24.6906 7.03879 73.2893C6.92523 74.3134 7.67604 75.1852 8.65152 75.2698C11.4109 75.531 14.6887 75.8742 18.2635 76.2612L18.5368 79.7211C18.6498 80.7279 19.5571 81.4263 20.5683 81.3C25.0292 80.6947 30.5741 80.0513 41.4077 78.7809C49.2447 79.5737 55.3694 80.0679 60.1278 80.2892C62.5573 80.3484 64.3462 78.6661 64.6189 76.525C64.6435 76.3005 64.6857 76.0256 64.7203 75.7724C67.5569 75.3425 69.8482 74.9637 71.8396 74.5953C74.0402 74.1954 75.5862 72.1483 75.3606 69.9346ZM67.6497 14.6417C67.8086 14.6481 67.9587 14.7496 67.9786 14.8956L68.4552 19.0692C61.7769 17.7791 55.1106 16.7661 48.3628 15.9113C55.2539 15.2463 61.5102 14.8369 67.6497 14.6417ZM30.6554 22.1768C32.6789 24.1227 34.8215 26.0802 37.1346 27.8688C30.2066 25.8441 30.506 25.9322 28.6775 25.395C29.4757 24.3134 30.1334 23.2447 30.6554 22.1768ZM8.96155 20.1787C11.6193 18.0886 15.0189 13.262 15.5897 9.19832C17.7739 10.4564 19.4965 11.6649 23.9327 14.5989C24.6974 15.1097 24.7384 15.2014 24.3165 16.1414C22.7828 19.5702 21.036 23.4135 17.5454 25.0979C16.5836 25.5621 17.2814 27.0332 18.254 26.561C22.2134 24.6486 24.1212 20.5616 25.8021 16.8047C26.5727 15.0846 26.2377 14.1761 24.8336 13.2468L22.8034 11.8983C24.6314 10.9683 26.9487 9.86932 28.7614 11.0267C31.43 12.7222 30.7784 18.1053 29.3294 21.21C27.854 24.369 23.7743 29.4153 20.4801 30.5077C19.004 30.9965 16.8788 30.9028 15.707 29.5397C14.4577 28.0913 14.6465 25.943 14.7799 24.1711C14.8061 23.822 14.6043 23.4951 14.2802 23.3602C12.3577 22.5644 10.5723 21.4903 8.96155 20.1787ZM20.3688 79.6877C20.2886 79.7163 20.1639 79.6274 20.1567 79.5671L19.9098 76.4432C24.9384 77.0106 29.4799 77.5249 34.0199 78.0135C28.8957 78.6134 24.1028 79.1799 20.3688 79.6877ZM63.0029 76.333C62.8258 77.7231 61.5968 78.715 60.2009 78.6658C45.492 77.9819 22.7482 74.9684 8.80564 73.6511L8.65231 73.4988L14.9769 31.0525C16.6096 32.4797 18.962 32.7207 20.9925 32.0502C23.6134 31.1805 25.8005 28.9142 27.5994 26.7729C31.6596 27.9695 34.7905 28.8709 39.3411 30.2081C39.0823 30.8641 38.9257 31.5626 38.9018 32.2787C38.8859 32.7262 39.2378 33.1023 39.6867 33.1182C39.6962 33.1182 39.7057 33.1182 39.7153 33.1182C40.1514 33.1182 40.5129 32.7722 40.5272 32.3326C40.6021 30.1453 42.2446 28.2054 44.4851 27.8782C45.534 27.721 45.3329 26.1332 44.2484 26.269C42.8219 26.4792 41.4916 27.1974 40.5022 28.2881C37.1519 26.0219 34.1162 23.2715 31.3232 20.5653C31.9136 18.9477 32.2312 17.3232 32.2255 15.75C58.3484 18.3889 67.6525 20.6342 69.5786 20.9402C69.7343 20.9703 69.8479 21.1132 69.832 21.2592C62.0863 84.3371 63.1754 74.7815 63.0029 76.333ZM71.5464 72.9973L71.5433 72.9989C69.6731 73.3448 67.5534 73.6971 64.9376 74.097C66.4413 62.2384 68.5574 45.4691 70.0094 33.6386C71.417 47.1699 73.0638 63.3761 73.7415 70.098C73.8845 71.4977 72.9407 72.745 71.5464 72.9973Z" fill="#3F3F5A"/>
<path d="M52.1292 44.4264C50.0478 45.1369 48.6383 46.7934 46.9852 47.8541C43.8646 49.8616 39.3918 49.4934 36.4468 47.2448C37.6088 45.4056 37.3477 43.4012 36.222 42.3761C34.7396 41.0302 32.627 42.276 32.643 44.2534C32.6527 45.4353 33.378 46.489 34.1779 47.3685C31.8106 49.26 28.5239 48.0638 26.6735 45.542C25.5788 44.0471 24.8884 42.1159 24.5023 39.4641C24.4371 39.0198 24.02 38.7199 23.5807 38.777C23.1358 38.8421 22.8276 39.2546 22.8927 39.699C23.3186 42.6237 24.1027 44.785 25.3611 46.5005C27.8461 49.891 32.3277 51.1402 35.3807 48.4826C38.8433 51.1987 44.0791 51.6545 47.8654 49.2221C49.5489 48.1372 50.9471 46.5477 52.6552 45.9657C54.6453 45.2833 57.1311 46.2117 58.1925 48.0271C58.4197 48.4159 58.9194 48.5492 59.3047 48.3191C59.6932 48.0938 59.8235 47.5955 59.5971 47.2083C58.1416 44.7184 54.8606 43.4933 52.1292 44.4264ZM35.2297 46.1022C34.7917 45.5989 34.2759 44.89 34.27 44.2407C34.2659 43.7429 34.6858 43.1788 35.1264 43.5774C35.7816 44.1726 35.6372 45.3085 35.2297 46.1022ZM40.9339 63.6693C38.9477 63.9804 36.8846 63.5614 35.2242 62.5728C35.5197 62.0792 35.7207 61.5349 35.8017 60.962C36.2151 58.0659 33.4737 56.6141 31.8907 57.9406C30.4188 59.1682 31.2705 61.3719 32.8241 62.7997C28.3829 65.8672 21.4405 58.7839 23.7301 51.1565C24.0381 50.1272 22.4799 49.659 22.1714 50.69C19.3193 60.1942 28.6484 68.5169 34.1588 63.8217C36.2629 65.1518 38.8422 65.6461 41.1865 65.2753C41.6306 65.2055 41.9341 64.7897 41.8642 64.3453C41.7943 63.9026 41.3748 63.6011 40.9339 63.6693ZM33.9149 61.5952C33.3611 61.0822 32.7108 60.2963 32.7669 59.5449C32.8338 58.6766 34.4389 58.9951 34.1906 60.7335C34.1469 61.0414 34.0516 61.3302 33.9149 61.5952Z" fill="#3F3F5A"/>
</g>
<defs>
<clipPath id="clip0_41_796">
<rect width="77.0963" height="81" fill="white" transform="translate(0.0749512)"/>
</clipPath>
</defs>
</svg>
